#N canvas 0 0 1792 1095 12;
#N canvas 0 0 1792 1095 wavetable 0;
#N canvas 45 22 1169 789 (subpatch) 0;
#X array oscillator 259 float 5 black #ff0000;
#A 0 -0.684238 0 0.684238 0.99998 0.936523 0.783527 0.768798 0.852346
0.878372 0.815619 0.765856 0.78929 0.827229 0.810305 0.762493 0.750474
0.777295 0.786531 0.755644 0.726315 0.733241 0.751456 0.740948 0.710118
0.698298 0.711771 0.716708 0.695306 0.67248 0.673598 0.684537 0.67661
0.652784 0.640999 0.648457 0.651425 0.634623 0.615008 0.613125 0.620254
0.613747 0.593773 0.58198 0.585982 0.587826 0.573771 0.556075 0.552333
0.557103 0.551514 0.533999 0.522177 0.523912 0.525033 0.512828 0.496414
0.491383 0.494539 0.489609 0.473816 0.461951 0.462065 0.462687 0.451834
0.436337 0.430342 0.432314 0.427899 0.413393 0.401471 0.40035 0.400614
0.390812 0.376004 0.369242 0.370303 0.366314 0.352817 0.340826 0.338719
0.33872 0.329773 0.315502 0.3081 0.308433 0.304815 0.292142 0.280068
0.27714 0.276947 0.268727 0.254886 0.246925 0.246656 0.243378 0.231401
0.219231 0.215595 0.21526 0.20768 0.19419 0.185724 0.184944 0.181989
0.170617 0.158334 0.154069 0.153635 0.146637 0.133439 0.124498 0.123274
0.120637 0.109808 0.0973929 0.0925501 0.0920528 0.0856038 0.0726511
0.0632505 0.061631 0.0593156 0.0489857 0.0364183 0.0310298 0.0305016
0.0245842 0.0118396 0.0019801 -4.29126e-13 -0.00197889 -0.0118368 -0.024582
-0.0305013 -0.0310295 -0.0364161 -0.0489828 -0.0593143 -0.061631 -0.0632494
-0.0726482 -0.0856015 -0.0920523 -0.0925499 -0.0973909 -0.109805 -0.120635
-0.123274 -0.124497 -0.133437 -0.146635 -0.153634 -0.154069 -0.158332
-0.170614 -0.181987 -0.184944 -0.185723 -0.194188 -0.207677 -0.21526
-0.215595 -0.219229 -0.231398 -0.243376 -0.246656 -0.246924 -0.254883
-0.268724 -0.276947 -0.27714 -0.280067 -0.292139 -0.304813 -0.308433
-0.308099 -0.3155 -0.32977 -0.338719 -0.338719 -0.340824 -0.352814
-0.366312 -0.370304 -0.369241 -0.376001 -0.390809 -0.400614 -0.400351
-0.40147 -0.413389 -0.427897 -0.432315 -0.430342 -0.436334 -0.451831
-0.462686 -0.462065 -0.46195 -0.473813 -0.489607 -0.494539 -0.491383
-0.496411 -0.512824 -0.525032 -0.523913 -0.522176 -0.533995 -0.551511
-0.557104 -0.552333 -0.556073 -0.573766 -0.587825 -0.585984 -0.58198
-0.593769 -0.613743 -0.620255 -0.613126 -0.615005 -0.634618 -0.651424
-0.648459 -0.640999 -0.652779 -0.676606 -0.684538 -0.6736 -0.672477
-0.6953 -0.716706 -0.711774 -0.698299 -0.710112 -0.740942 -0.751457
-0.733245 -0.726313 -0.755636 -0.786528 -0.777301 -0.750477 -0.762485
-0.810295 -0.827232 -0.7893 -0.765854 -0.815602 -0.878366 -0.852362
-0.768811 -0.783506 -0.936488 -1 -0.684355 -0.000164717 0.684122;
#X coords 0 1 258 -1 725 325 1;
#X restore -210 -200 graph;
#X obj 770 -180 vsl 15 128 22 5000 1 0 empty empty Frequency -16 -12
0 10 #fcfcfc #000000 #000000 3361 1;
#X obj 860 -10 tabosc4~ oscillator;
#X obj 650 200 *~;
#X obj 160 -490 t b b;
#X obj -210 -370 bng 50 100 50 0 empty empty Sawtooth\ Wave 56 24 0
15 #f76d3c #000000 #000000;
#X floatatom 120 -530 5 0 0 0 - - -, f 5;
#X obj 130 -450 f;
#X obj 190 -450 f;
#X floatatom 180 -530 5 0 0 0 - - -, f 5;
#N canvas 0 22 1792 1095 sawtoothConfig 0;
#X msg 312 165 add;
#X msg 52 465 adddollar \$1;
#X msg 352 165 set;
#X obj 172 185 until;
#X obj 172 215 f;
#X obj 222 215 + 1;
#X msg 232 175 1;
#X floatatom 219 68 5 0 0 0 - - -, f 5;
#X obj 175 349 list trim;
#X obj 175 289 list store;
#X msg 172 255 append \$1;
#X obj 175 319 list prepend set;
#X msg 660 370 1 2 3 4 5 6 7 8 9 10 11 12 13 14 15 16 17 18 19 20 21
22 23 24 25 26 27 28 29 30 31 32 33 34 35 36 37 38 39 40 41 42 43 44
45 46 47 48 49 50 51 52 53 54 55 56;
#X obj 232 485 list-apply pow -1;
#X msg 780 660 \; oscillator normalize;
#X obj 232 525 list;
#X msg 102 565 \; oscillator sinesum 259 \$1 \$2 \$3 \$4 \$5 \$6 \$7
\$8 \$9 \$10 \$11 \$12 \$13 \$14 \$15 \$16 \$17 \$18 \$19 \$20 \$21
\$22 \$23 \$24 \$25 \$26 \$27 \$28 \$29 \$30 \$31 \$32 \$33 \$34 \$35
\$36 \$37 \$38 \$39 \$40 \$41 \$42 \$43 \$44 \$45 \$46 \$47 \$48 \$49
\$50 \$51 \$52 \$53 \$54 \$55 \$56;
#X floatatom 442 195 5 0 0 0 - - -, f 5;
#X msg 452 95 2;
#X floatatom 502 95 5 0 0 0 - - -, f 5;
#X msg 283 16 200;
#X msg 303 69 500;
#X obj 452 125 pow \$1;
#X msg 442 245 add2 \$1;
#X msg 322 285 add2 oscillator sinesum;
#X obj 212 115 t b b f b b b b b;
#X obj 452 155 + 3;
#X msg 194 32 40;
#X obj 100 30 inlet;
#X obj 500 50 inlet;
#X text 60 10 Number of harmonics;
#X text 480 20 Power of 2 for size of wavetable;
#X connect 0 0 16 0;
#X connect 1 0 16 0;
#X connect 2 0 16 0;
#X connect 3 0 4 0;
#X connect 4 0 5 0;
#X connect 4 0 1 0;
#X connect 4 0 10 0;
#X connect 5 0 4 1;
#X connect 6 0 4 1;
#X connect 7 0 25 0;
#X connect 8 0 12 0;
#X connect 9 0 11 0;
#X connect 10 0 9 0;
#X connect 11 0 8 0;
#X connect 12 0 13 0;
#X connect 12 0 14 0;
#X connect 13 0 15 0;
#X connect 15 0 16 0;
#X connect 17 0 23 0;
#X connect 18 0 22 0;
#X connect 19 0 22 1;
#X connect 20 0 7 0;
#X connect 21 0 25 0;
#X connect 22 0 26 0;
#X connect 23 0 16 0;
#X connect 24 0 16 0;
#X connect 25 0 12 0;
#X connect 25 1 9 0;
#X connect 25 2 3 0;
#X connect 25 3 9 1;
#X connect 25 3 6 0;
#X connect 25 4 18 0;
#X connect 25 5 24 0;
#X connect 25 6 0 0;
#X connect 25 7 2 0;
#X connect 26 0 17 0;
#X connect 27 0 7 0;
#X connect 28 0 7 0;
#X connect 29 0 19 0;
#X restore 100 -410 pd sawtoothConfig;
#N canvas 0 22 1792 1095 squareConfig 0;
#X obj 152 215 until;
#X obj 152 245 f;
#X msg 212 205 1;
#X floatatom 199 98 5 0 0 0 - - -, f 5;
#X obj 223 454 list trim;
#X obj 223 394 list store;
#X msg 220 360 append \$1;
#X obj 223 424 list prepend set;
#X msg 660 410 1 3 5 7 9 11 13 15 17 19 21 23 25 27 29 31 33 35 37
39 41 43 45 47 49 51 53 55 57 59 61 63 65 67 69 71 73 75 77 79 81 83
85 87 89 91 93 95 97;
#X obj 240 580 list-apply pow -1;
#X msg 790 620 \; oscillator normalize;
#X obj 190 600 list;
#X msg 110 640 \; oscillator sinesum 259 \$1 0 \$2 0 \$3 0 \$4 0 \$5
0 \$6 0 \$7 0 \$8 0 \$9 0 \$10 0 \$11 0 \$12 0 \$13 0 \$14 0 \$15 0
\$16 0 \$17 0 \$18 0 \$19 0 \$20 0 \$21 0 \$22 0 \$23 0 \$24 0 \$25
0 \$26 0 \$27 0 \$28 0 \$29 0 \$30 0 \$31 0 \$32 0 \$33 0 \$34 0 \$35
0 \$36 0 \$37 0 \$38 0 \$39 0 \$40 0 \$41 0 \$42 0 \$43 0 \$44 0 \$45
0 \$46 0 \$47 0 \$48 0 \$49 0;
#X floatatom 630 210 5 0 0 0 - - -, f 5;
#X msg 640 110 2;
#X floatatom 690 110 5 0 0 0 - - -, f 5;
#X msg 263 46 200;
#X obj 640 140 pow \$1;
#X msg 630 260 add2 \$1;
#X obj 640 170 + 3;
#X msg 174 62 40;
#X obj 80 60 inlet;
#X obj 688 65 inlet;
#X text 40 40 Number of harmonics;
#X text 668 35 Power of 2 for size of wavetable;
#X obj 192 145 t b b f b b b;
#X msg 280 190 set \, add \, add2 oscillator sinesum;
#X obj 202 245 + 1;
#X obj 155 287 * 2;
#X obj 178 325 - 1;
#X msg 32 495 adddollar \$1 \, add2 0;
#X connect 0 0 1 0;
#X connect 1 0 30 0;
#X connect 1 0 27 0;
#X connect 1 0 28 0;
#X connect 2 0 1 1;
#X connect 3 0 25 0;
#X connect 4 0 8 0;
#X connect 5 0 7 0;
#X connect 6 0 5 0;
#X connect 7 0 4 0;
#X connect 8 0 9 0;
#X connect 8 0 10 0;
#X connect 9 0 11 0;
#X connect 11 0 12 0;
#X connect 13 0 18 0;
#X connect 14 0 17 0;
#X connect 15 0 17 1;
#X connect 16 0 3 0;
#X connect 17 0 19 0;
#X connect 18 0 12 0;
#X connect 19 0 13 0;
#X connect 20 0 3 0;
#X connect 21 0 3 0;
#X connect 22 0 15 0;
#X connect 25 0 8 0;
#X connect 25 1 5 0;
#X connect 25 2 0 0;
#X connect 25 3 5 1;
#X connect 25 3 2 0;
#X connect 25 4 14 0;
#X connect 25 5 26 0;
#X connect 26 0 12 0;
#X connect 27 0 1 1;
#X connect 28 0 29 0;
#X connect 29 0 6 0;
#X connect 30 0 12 0;
#X restore 410 -410 pd squareConfig;
#X obj 460 -490 t b b;
#X floatatom 440 -530 5 0 0 0 - - -, f 5;
#X obj 432 -450 f;
#X obj 492 -450 f;
#X floatatom 490 -530 5 0 0 0 - - -, f 5;
#N canvas 0 22 1792 1095 triangleConfig 0;
#X obj 190 -410 until;
#X obj 190 -380 f;
#X msg 250 -420 1;
#X floatatom 237 -527 5 0 0 0 - - -, f 5;
#X obj 350 -120 list trim;
#X obj 350 -180 list store;
#X msg 350 -209 append \$1;
#X obj 350 -150 list prepend set;
#X msg 690 -140 1 -9 25 -49 81 -121 169 -225 289;
#X obj 400 10 list-apply pow -1;
#X obj 380 50 list;
#X floatatom 668 -415 5 0 0 0 - - -, f 5;
#X msg 678 -515 2;
#X floatatom 728 -515 5 0 0 0 - - -, f 5;
#X msg 301 -579 200;
#X msg 321 -526 500;
#X obj 678 -485 pow \$1;
#X msg 668 -365 add2 \$1;
#X obj 678 -455 + 3;
#X msg 212 -563 40;
#X obj 118 -565 inlet;
#X obj 726 -560 inlet;
#X text 78 -585 Number of harmonics;
#X text 706 -590 Power of 2 for size of wavetable;
#X obj 230 -480 t b b f b b b;
#X msg 320 -410 set \, add \, add2 oscillator sinesum;
#X obj 240 -380 + 1;
#X obj 190 -338 * 2;
#X obj 190 -310 - 1;
#X obj 190 -280 pow 2;
#X msg 820 30 \; oscillator normalize;
#X msg 180 120 \; oscillator sinesum 259 \$1 0 \$2 0 \$3 0 \$4 0 \$5
0 \$6 0 \$7 0 \$8 0 \$9 0;
#X msg 40 -140 adddollar \$1 \, add2 0;
#X obj 450 -280 tgl 15 0 empty empty empty 17 7 0 10 #fcfcfc #000000
#000000 0 1;
#X obj 220 -250 expr if ($f2 == 1 \, $f1 \, $f1 * -1);
#X msg 450 -310 1;
#X connect 0 0 1 0;
#X connect 0 0 33 0;
#X connect 1 0 26 0;
#X connect 1 0 27 0;
#X connect 1 0 32 0;
#X connect 2 0 1 1;
#X connect 3 0 24 0;
#X connect 4 0 8 0;
#X connect 5 0 7 0;
#X connect 6 0 5 0;
#X connect 7 0 4 0;
#X connect 8 0 9 0;
#X connect 8 0 30 0;
#X connect 9 0 10 0;
#X connect 10 0 31 0;
#X connect 11 0 17 0;
#X connect 12 0 16 0;
#X connect 13 0 16 1;
#X connect 14 0 3 0;
#X connect 15 0 24 0;
#X connect 16 0 18 0;
#X connect 17 0 31 0;
#X connect 18 0 11 0;
#X connect 19 0 3 0;
#X connect 20 0 3 0;
#X connect 21 0 13 0;
#X connect 24 0 8 0;
#X connect 24 1 5 0;
#X connect 24 2 0 0;
#X connect 24 3 5 1;
#X connect 24 3 2 0;
#X connect 24 4 12 0;
#X connect 24 5 25 0;
#X connect 24 5 35 0;
#X connect 25 0 31 0;
#X connect 26 0 1 1;
#X connect 27 0 28 0;
#X connect 28 0 29 0;
#X connect 29 0 34 0;
#X connect 32 0 31 0;
#X connect 33 0 34 1;
#X connect 34 0 6 0;
#X connect 35 0 33 0;
#X restore 260 -410 pd triangleConfig;
#X obj 320 -490 t b b;
#X floatatom 290 -520 5 0 0 0 - - -, f 5;
#X obj 292 -450 f;
#X obj 352 -450 f;
#X floatatom 340 -520 5 0 0 0 - - -, f 5;
#N canvas 45 22 1169 789 (subpatch) 0;
#X array oscillator2 1027 float 5 black #923ccd;
#A 0 -0.0987141 0 0.0987141 0.196335 0.291791 0.384054 0.472155 0.55521
0.632428 0.703132 0.766769 0.822917 0.871294 0.911757 0.944306 0.969078
0.986339 0.99648 1 0.997494 0.98964 0.977175 0.960885 0.941578 0.920073
0.897176 0.873665 0.850272 0.827671 0.806461 0.787161 0.770197 0.755897
0.744493 0.736113 0.730788 0.728458 0.728974 0.732109 0.737572 0.745012
0.75404 0.764236 0.775163 0.786384 0.797474 0.80803 0.817683 0.826109
0.833035 0.838245 0.841589 0.842977 0.842385 0.839853 0.83548 0.829417
0.821865 0.813063 0.803283 0.792818 0.78197 0.771047 0.760348 0.750153
0.740721 0.732278 0.725008 0.719059 0.714526 0.71146 0.709864 0.709694
0.710859 0.713232 0.716649 0.720917 0.725821 0.731133 0.736614 0.74203
0.747151 0.751766 0.755682 0.758734 0.76079 0.76175 0.761553 0.760178
0.757639 0.75399 0.749317 0.743738 0.737398 0.730463 0.723113 0.715541
0.707941 0.700502 0.693409 0.686828 0.680906 0.675769 0.671511 0.668199
0.665867 0.664517 0.66412 0.664616 0.665918 0.667914 0.670472 0.673445
0.676673 0.679993 0.683239 0.686254 0.688888 0.691007 0.692494 0.693258
0.693229 0.692366 0.690654 0.688107 0.684766 0.680695 0.675982 0.670734
0.665074 0.659137 0.653063 0.646997 0.641079 0.635445 0.630217 0.625505
0.621398 0.617966 0.615256 0.613291 0.612069 0.611564 0.611729 0.612493
0.613768 0.615452 0.617429 0.619576 0.621765 0.62387 0.625768 0.627344
0.628497 0.629138 0.629197 0.628625 0.627391 0.625488 0.622931 0.619755
0.616015 0.611782 0.607146 0.602206 0.59707 0.591851 0.586666 0.581626
0.576839 0.572401 0.568398 0.5649 0.56196 0.559612 0.55787 0.55673
0.556167 0.556139 0.556584 0.557429 0.558586 0.55996 0.561449 0.562946
0.564348 0.565556 0.566476 0.567025 0.567134 0.566748 0.565829 0.564356
0.562327 0.559757 0.556679 0.553143 0.549212 0.544963 0.54048 0.535856
0.531188 0.526571 0.522101 0.517866 0.513947 0.510411 0.507317 0.504705
0.502601 0.501014 0.499935 0.499341 0.49919 0.499429 0.499992 0.500802
0.501775 0.502823 0.503856 0.504784 0.505524 0.505996 0.506132 0.505875
0.50518 0.504018 0.502374 0.500251 0.497665 0.494648 0.491247 0.487518
0.483531 0.479361 0.475091 0.470803 0.466583 0.462511 0.458665 0.455111
0.451908 0.449103 0.446729 0.444804 0.443333 0.442305 0.441695 0.441465
0.441564 0.441931 0.442498 0.443189 0.443925 0.444626 0.445215 0.445616
0.445764 0.445598 0.445072 0.444148 0.442803 0.441029 0.43883 0.436225
0.433245 0.429934 0.426347 0.422546 0.418601 0.414585 0.410574 0.406644
0.402866 0.399307 0.396026 0.393073 0.390487 0.388295 0.38651 0.385132
0.38415 0.383536 0.383255 0.383257 0.383485 0.383876 0.38436 0.384866
0.38532 0.385654 0.385802 0.385703 0.385307 0.384572 0.383469 0.38198
0.380099 0.377835 0.375207 0.372247 0.368997 0.36551 0.361844 0.358064
0.354238 0.350436 0.346726 0.343172 0.339835 0.336766 0.334009 0.331597
0.329551 0.327881 0.326583 0.325644 0.325037 0.324724 0.324659 0.324787
0.325049 0.325378 0.325709 0.325975 0.326112 0.326061 0.325768 0.325188
0.324287 0.323038 0.321429 0.319457 0.317133 0.314478 0.311524 0.308314
0.304896 0.301329 0.297673 0.293991 0.29035 0.286811 0.283434 0.280273
0.277374 0.274776 0.272507 0.270584 0.269013 0.267788 0.266893 0.2663
0.265972 0.265862 0.265919 0.266084 0.266296 0.266492 0.266611 0.266592
0.266382 0.265933 0.265203 0.264162 0.26279 0.261076 0.259023 0.256641
0.253954 0.250996 0.247808 0.244438 0.240942 0.237378 0.233808 0.230291
0.226888 0.223653 0.220635 0.217877 0.215413 0.213266 0.21145 0.209968
0.208812 0.207963 0.207391 0.207061 0.206925 0.206933 0.207028 0.207151
0.207243 0.207245 0.207101 0.206761 0.206181 0.205324 0.204164 0.202684
0.200876 0.198745 0.196306 0.193583 0.19061 0.187429 0.184088 0.180641
0.177146 0.17366 0.170242 0.166948 0.163829 0.160931 0.158292 0.155943
0.153904 0.152185 0.150786 0.149697 0.148897 0.148355 0.148034 0.147888
0.147865 0.147911 0.147968 0.147979 0.147888 0.147642 0.147194 0.146503
0.145537 0.144271 0.142692 0.140797 0.138592 0.136093 0.133327 0.130329
0.127142 0.123814 0.120399 0.116952 0.11353 0.110189 0.106983 0.10396
0.101163 0.0986282 0.0963813 0.0944401 0.0928119 0.0914938 0.0904729
0.0897264 0.0892227 0.0889225 0.0887795 0.0887427 0.0887574 0.0887674
0.0887169 0.0885517 0.0882217 0.0876822 0.0868953 0.0858312 0.0844693
0.0827986 0.0808182 0.0785374 0.0759751 0.0731596 0.0701274 0.0669219
0.0635923 0.0601917 0.0567754 0.0533995 0.0501183 0.0469835 0.0440414
0.0413324 0.0388893 0.0367358 0.0348866 0.0333462 0.032109 0.0311596
0.0304732 0.0300165 0.0297486 0.0296224 0.0295863 0.0295859 0.0295653
0.0294697 0.0292464 0.0288471 0.0282292 0.0273571 0.0262039 0.0247515
0.0229916 0.0209262 0.018567 0.0159355 0.0130619 0.00998443 0.00674792
0.00340241 1.47482e-06 -0.00339948 -0.00674507 -0.00998169 -0.0130593
-0.0159331 -0.0185649 -0.0209243 -0.02299 -0.0247501 -0.0262028 -0.0273563
-0.0282285 -0.0288466 -0.0292461 -0.0294696 -0.0295653 -0.0295859 -0.0295863
-0.0296223 -0.0297484 -0.0300162 -0.0304728 -0.0311589 -0.032108 -0.033345
-0.0348851 -0.0367341 -0.0388873 -0.0413302 -0.0440389 -0.0469808 -0.0501156
-0.0533966 -0.0567725 -0.0601887 -0.0635894 -0.0669191 -0.0701247 -0.0731571
-0.0759728 -0.0785353 -0.0808164 -0.082797 -0.084468 -0.0858302 -0.0868945
-0.0876816 -0.0882213 -0.0885515 -0.0887168 -0.0887674 -0.0887574 -0.0887427
-0.0887794 -0.0889223 -0.0892224 -0.0897258 -0.0904721 -0.0914928 -0.0928107
-0.0944386 -0.0963795 -0.0986261 -0.101161 -0.103957 -0.10698 -0.110186
-0.113527 -0.116949 -0.120396 -0.123811 -0.127139 -0.130327 -0.133325
-0.13609 -0.138589 -0.140795 -0.142691 -0.14427 -0.145536 -0.146502
-0.147193 -0.147642 -0.147888 -0.147979 -0.147968 -0.147911 -0.147865
-0.147888 -0.148034 -0.148355 -0.148896 -0.149696 -0.150785 -0.152184
-0.153902 -0.155941 -0.15829 -0.160929 -0.163826 -0.166945 -0.170239
-0.173657 -0.177143 -0.180638 -0.184085 -0.187426 -0.190607 -0.193581
-0.196304 -0.198744 -0.200874 -0.202682 -0.204163 -0.205323 -0.20618
-0.20676 -0.207101 -0.207245 -0.207243 -0.207151 -0.207028 -0.206933
-0.206925 -0.207061 -0.207391 -0.207962 -0.208811 -0.209967 -0.211449
-0.213265 -0.215411 -0.217875 -0.220633 -0.22365 -0.226885 -0.230288
-0.233805 -0.237375 -0.240939 -0.244435 -0.247805 -0.250993 -0.253952
-0.256639 -0.259021 -0.261075 -0.262789 -0.264161 -0.265202 -0.265932
-0.266382 -0.266592 -0.266611 -0.266493 -0.266296 -0.266084 -0.265919
-0.265862 -0.265972 -0.2663 -0.266893 -0.267788 -0.269012 -0.270583
-0.272506 -0.274774 -0.277372 -0.28027 -0.283431 -0.286808 -0.290347
-0.293988 -0.29767 -0.301326 -0.304893 -0.308311 -0.311521 -0.314475
-0.31713 -0.319455 -0.321427 -0.323037 -0.324286 -0.325188 -0.325767
-0.32606 -0.326112 -0.325975 -0.325709 -0.325378 -0.325049 -0.324788
-0.324659 -0.324724 -0.325037 -0.325644 -0.326583 -0.327879 -0.329549
-0.331595 -0.334007 -0.336763 -0.339832 -0.343169 -0.346722 -0.350433
-0.354235 -0.35806 -0.36184 -0.365507 -0.368994 -0.372244 -0.375204
-0.377833 -0.380098 -0.381979 -0.383468 -0.384571 -0.385306 -0.385702
-0.385802 -0.385655 -0.385321 -0.384866 -0.384361 -0.383876 -0.383485
-0.383257 -0.383255 -0.383536 -0.384149 -0.385131 -0.386508 -0.388293
-0.390485 -0.393071 -0.396023 -0.399304 -0.402863 -0.406641 -0.410571
-0.414581 -0.418597 -0.422543 -0.426344 -0.429931 -0.433242 -0.436223
-0.438828 -0.441028 -0.442802 -0.444147 -0.445071 -0.445598 -0.445764
-0.445617 -0.445215 -0.444627 -0.443925 -0.443189 -0.442499 -0.441932
-0.441564 -0.441465 -0.441694 -0.442304 -0.443332 -0.444802 -0.446727
-0.449101 -0.451906 -0.455108 -0.458661 -0.462508 -0.466579 -0.470799
-0.475087 -0.479358 -0.483528 -0.487515 -0.491244 -0.494646 -0.497663
-0.500249 -0.502373 -0.504017 -0.505179 -0.505874 -0.506132 -0.505996
-0.505524 -0.504785 -0.503857 -0.502824 -0.501776 -0.500803 -0.499993
-0.49943 -0.49919 -0.49934 -0.499935 -0.501013 -0.5026 -0.504703 -0.507315
-0.510408 -0.513943 -0.517863 -0.522098 -0.526567 -0.531184 -0.535852
-0.540476 -0.544959 -0.549209 -0.55314 -0.556676 -0.559754 -0.562325
-0.564354 -0.565828 -0.566748 -0.567134 -0.567025 -0.566476 -0.565557
-0.56435 -0.562947 -0.56145 -0.559962 -0.558588 -0.55743 -0.556585
-0.556139 -0.556167 -0.55673 -0.557869 -0.55961 -0.561958 -0.564897
-0.568395 -0.572397 -0.576835 -0.581622 -0.586661 -0.591847 -0.597065
-0.602201 -0.607142 -0.611779 -0.616011 -0.619752 -0.622929 -0.625486
-0.627389 -0.628624 -0.629197 -0.629138 -0.628498 -0.627346 -0.625769
-0.623872 -0.621767 -0.619577 -0.617431 -0.615454 -0.613769 -0.612493
-0.611729 -0.611564 -0.612068 -0.613289 -0.615254 -0.617963 -0.621395
-0.625501 -0.630213 -0.63544 -0.641074 -0.646992 -0.653058 -0.659132
-0.665069 -0.670729 -0.675977 -0.680691 -0.684763 -0.688105 -0.690652
-0.692365 -0.693228 -0.693258 -0.692495 -0.691008 -0.68889 -0.686257
-0.683242 -0.679995 -0.676676 -0.673447 -0.670475 -0.667916 -0.665919
-0.664617 -0.66412 -0.664516 -0.665865 -0.668196 -0.671508 -0.675765
-0.680902 -0.686822 -0.693403 -0.700496 -0.707934 -0.715535 -0.723107
-0.730456 -0.737392 -0.743733 -0.749312 -0.753986 -0.757636 -0.760176
-0.761552 -0.76175 -0.760791 -0.758737 -0.755685 -0.75177 -0.747156
-0.742034 -0.736619 -0.731137 -0.725826 -0.720921 -0.716652 -0.713235
-0.710861 -0.709694 -0.709864 -0.711458 -0.714522 -0.719054 -0.725003
-0.732271 -0.740714 -0.750145 -0.760338 -0.771038 -0.781961 -0.792808
-0.803275 -0.813055 -0.821857 -0.829411 -0.835475 -0.83985 -0.842384
-0.842977 -0.841591 -0.838249 -0.83304 -0.826116 -0.817691 -0.808039
-0.797484 -0.786394 -0.775172 -0.764245 -0.754049 -0.745019 -0.737577
-0.732113 -0.728975 -0.728457 -0.730785 -0.736107 -0.744484 -0.755886
-0.770183 -0.787145 -0.806444 -0.827652 -0.850252;
#A 1000 -0.873645 -0.897156 -0.920054 -0.94156 -0.960869 -0.977163
-0.989631 -0.99749 -1 -0.996486 -0.986351 -0.969096 -0.944331 -0.911789
-0.871332 -0.822963 -0.766821 -0.70319 -0.632492 -0.555279 -0.47223
-0.384132 -0.291873 -0.196419 -0.0987991 -8.55396e-05 0.098629;
#X coords 0 1 1026 -1 725 325 1;
#X restore -210 380 graph;
#X obj 1013 -10 tabosc4~ oscillator2;
#X obj -210 140 hsl 674 50 0 1 0 0 empty empty Oscillator1\ <--------Wavetable\ Mixer-------->\ Oscillator2
41 21 0 18 #f15f75 #000000 #f8d843 33650 1;
#X obj 860 30 *~;
#X obj 1013 29 *~;
#X floatatom 1013 -111 5 0 0 0 - - -, f 5;
#X floatatom 953 -111 5 0 0 0 - - -, f 5;
#X msg 953 -171 1;
#X obj 953 -141 -;
#X obj 943 -71 vline~;
#X obj 1019 -70 vline~;
#X msg 900 -100 100;
#X obj 310 810 t b b;
#X floatatom 270 770 5 0 0 0 - - -, f 5;
#X obj 312 850 f;
#X obj 372 850 f;
#X floatatom 370 770 5 0 0 0 - - -, f 5;
#N canvas 0 22 1792 1095 squareConfig2 0;
#X obj 152 215 until;
#X obj 152 245 f;
#X msg 212 205 1;
#X floatatom 199 98 5 0 0 0 - - -, f 5;
#X obj 223 454 list trim;
#X obj 223 394 list store;
#X msg 220 360 append \$1;
#X obj 223 424 list prepend set;
#X msg 600 460 1 3 5 7 9 11 13 15 17 19 21 23 25 27 29 31 33 35 37
39 41 43 45 47 49 51 53 55 57;
#X obj 240 580 list-apply pow -1;
#X obj 190 600 list;
#X msg 110 640 \; oscillator2 sinesum 259 \$1 0 \$2 0 \$3 0 \$4 0 \$5
0 \$6 0 \$7 0 \$8 0 \$9 0 \$10 0 \$11 0 \$12 0 \$13 0 \$14 0 \$15 0
\$16 0 \$17 0 \$18 0 \$19 0 \$20 0 \$21 0 \$22 0 \$23 0 \$24 0 \$25
0 \$26 0 \$27 0 \$28 0 \$29 0;
#X floatatom 630 210 5 0 0 0 - - -, f 5;
#X msg 640 110 2;
#X floatatom 690 110 5 0 0 0 - - -, f 5;
#X msg 263 46 200;
#X obj 640 140 pow \$1;
#X msg 630 260 add2 \$1;
#X obj 640 170 + 3;
#X msg 174 62 40;
#X obj 80 60 inlet;
#X obj 688 65 inlet;
#X text 40 40 Number of harmonics;
#X text 668 35 Power of 2 for size of wavetable;
#X obj 192 145 t b b f b b b;
#X obj 202 245 + 1;
#X obj 155 287 * 2;
#X obj 178 325 - 1;
#X msg 32 495 adddollar \$1 \, add2 0;
#X msg 280 190 set \, add \, add2 oscillator2 sinesum;
#X msg 700 620 \; oscillator2 normalize;
#X connect 0 0 1 0;
#X connect 1 0 28 0;
#X connect 1 0 25 0;
#X connect 1 0 26 0;
#X connect 2 0 1 1;
#X connect 3 0 24 0;
#X connect 4 0 8 0;
#X connect 5 0 7 0;
#X connect 6 0 5 0;
#X connect 7 0 4 0;
#X connect 8 0 9 0;
#X connect 8 0 30 0;
#X connect 9 0 10 0;
#X connect 10 0 11 0;
#X connect 12 0 17 0;
#X connect 13 0 16 0;
#X connect 14 0 16 1;
#X connect 15 0 3 0;
#X connect 16 0 18 0;
#X connect 17 0 11 0;
#X connect 18 0 12 0;
#X connect 19 0 3 0;
#X connect 20 0 3 0;
#X connect 21 0 14 0;
#X connect 24 0 8 0;
#X connect 24 1 5 0;
#X connect 24 2 0 0;
#X connect 24 3 5 1;
#X connect 24 3 2 0;
#X connect 24 4 13 0;
#X connect 24 5 29 0;
#X connect 25 0 1 1;
#X connect 26 0 27 0;
#X connect 27 0 6 0;
#X connect 28 0 11 0;
#X connect 29 0 11 0;
#X restore 280 890 pd squareConfig2;
#X obj 1219 282 osc~ 20;
#X obj 1219 318 +~ 1;
#X obj 1219 350 /~ 2;
#X obj 1217 400 snapshot~;
#X floatatom 1217 436 5 0 0 0 - - -, f 5;
#X obj 1270 370 metro 10;
#X obj 470 140 tgl 50 0 empty empty LFO 11 23 0 18 #f15f75 #000000
#f8d843 0 1;
#X obj 1297 138 vsl 15 128 0 4 0 0 SpeedMatchedLFO empty Sequencer\ speed\ mapped\ LFO
-56 -13 0 10 #fcfcfc #000000 #000000 4608 1;
#X floatatom 1265 81 5 0 0 0 - - -, f 5;
#X obj 1265 51 * 1000;
#X floatatom 1300 290 5 0 0 0 - - -, f 5;
#X obj 1217 498 -;
#X floatatom 1217 528 5 0 0 0 - - -, f 5;
#X msg 1177 463 1;
#X floatatom -700 750 5 0 0 0 - - -, f 5;
#X floatatom -440 780 5 0 0 0 - - -, f 5;
#X text 820 -200 A fader between oscillator 1 and oscillator 2;
#X obj 660 720 dac~;
#X obj 790 700 tabwrite~ oscilloscope;
#X obj 800 670 metro 100;
#X obj 810 650 tgl 15 0 empty empty empty 17 7 0 10 #fcfcfc #000000
#000000 1 1;
#X obj 810 620 loadbang;
#N canvas 222 22 1570 1095 ADSR 0;
#X floatatom 793 401 5 0 0 0 - - -, f 5;
#X floatatom 923 401 5 0 0 0 - - -, f 5;
#X obj 809 551 vline~;
#X obj 793 431 f;
#X obj 849 441 f;
#X text 900 130 A simple ADSR envolope using vline which is the same
total length as the sequencer speed \, and the Attack \, decay \, sustain
\, and release times are all 1 quarter of the sequencer speed.;
#X obj 1290 610 loadbang;
#X text 1220 580 Sends default values on startup;
#X obj 730 160 hsl 128 15 0 0.5 0 0 empty empty ADSR\ fader -2 -8 0
10 #fcfcfc #000000 #000000 12700 1;
#X floatatom 720 250 5 0 0 0 - - -, f 5;
#X floatatom 800 250 5 0 0 0 - - -, f 5;
#X msg 740 190 1;
#X obj 740 220 -;
#X obj 809 472 pack f f f;
#X msg 809 521 1 \$1 0 \, \$3 \$1 \$1 \, 0 \$1 \$2;
#X msg 1280 710 0.7;
#X obj 789 371 * \$1;
#X obj 923 371 * \$1;
#X obj 870 260 bng 15 250 50 0 empty empty empty 17 7 0 10 #fcfcfc
#000000 #000000;
#X text 1270 300 This comes from sequencer speed in ms \, so that one
ADSR lasts as long as one tick in the sequencer;
#X obj 610 670 outlet~;
#X text 700 700 Write to the ADSR filter with every click of the sequencer
\, even empty ones;
#X obj 937 617 r tabwriteADSR;
#X obj 870 640 bng 15 250 50 0 empty empty empty 17 7 0 10 #fcfcfc
#000000 #000000;
#X obj 680 370 r note;
#X obj 700 440 bng 30 250 50 0 empty empty empty 17 7 0 10 #fcfcfc
#000000 #000000;
#X floatatom 1310 440 5 0 0 0 - - -, f 5;
#X obj 1307 403 r sequencerSpeedInverse;
#X obj 1050 360 hsl 128 15 0 1 0 0 empty empty ADSR\ Sustain -2 -8
0 10 #fcfcfc #000000 #000000 11430 1;
#X floatatom 1020 420 5 0 0 0 - - -, f 5;
#X obj 690 100 r ADSRfader;
#X obj 1009 271 r ADSRsustain;
#X obj 1270 760 s ADSRsustain;
#X obj 1243 540 s ADSR_size_slider;
#X obj 1243 512 f;
#X obj 1180 480 metro 100;
#X obj 1180 460 tgl 15 0 empty empty empty 17 7 0 10 #fcfcfc #000000
#000000 1 1;
#X obj 1180 430 loadbang;
#X floatatom 1365 496 33 0 0 0 - - -, f 33;
#X obj 1280 470 * 47;
#X text 330 490 Activate envelope when a selected sequencer bit is
activated;
#X obj 790 670 tabwrite~ Envelope;
#X connect 0 0 3 1;
#X connect 1 0 4 1;
#X connect 2 0 20 0;
#X connect 2 0 41 0;
#X connect 3 0 13 0;
#X connect 4 0 13 1;
#X connect 6 0 15 0;
#X connect 8 0 9 0;
#X connect 8 0 11 0;
#X connect 8 0 18 0;
#X connect 9 0 12 1;
#X connect 9 0 16 1;
#X connect 10 0 17 1;
#X connect 11 0 12 0;
#X connect 12 0 10 0;
#X connect 13 0 14 0;
#X connect 14 0 2 0;
#X connect 15 0 32 0;
#X connect 16 0 0 0;
#X connect 17 0 1 0;
#X connect 18 0 16 0;
#X connect 18 0 17 0;
#X connect 22 0 23 0;
#X connect 23 0 41 0;
#X connect 24 0 25 0;
#X connect 25 0 3 0;
#X connect 25 0 4 0;
#X connect 26 0 17 0;
#X connect 26 0 16 0;
#X connect 26 0 39 0;
#X connect 27 0 26 0;
#X connect 28 0 29 0;
#X connect 29 0 13 2;
#X connect 30 0 8 0;
#X connect 31 0 28 0;
#X connect 34 0 33 0;
#X connect 35 0 34 0;
#X connect 36 0 35 0;
#X connect 37 0 36 0;
#X connect 39 0 34 1;
#X connect 39 0 38 0;
#X coords 0 0 1 1 500 274 0;
#X restore 760 180 pd ADSR;
#X obj 670 620 *~;
#X obj -10 810 t b b;
#X floatatom -40 770 5 0 0 0 - - -, f 5;
#X obj -40 850 f;
#X obj 20 850 f;
#X floatatom 10 770 5 0 0 0 - - -, f 5;
#X obj 150 810 t b b;
#X floatatom 120 770 5 0 0 0 - - -, f 5;
#X obj 122 850 f;
#X obj 182 850 f;
#X floatatom 170 770 5 0 0 0 - - -, f 5;
#N canvas 0 22 1792 1095 sawtoothConfig2 0;
#X msg 312 165 add;
#X msg 52 465 adddollar \$1;
#X msg 352 165 set;
#X obj 172 185 until;
#X obj 172 215 f;
#X obj 222 215 + 1;
#X msg 232 175 1;
#X floatatom 219 68 5 0 0 0 - - -, f 5;
#X obj 175 349 list trim;
#X obj 175 289 list store;
#X msg 172 255 append \$1;
#X obj 175 319 list prepend set;
#X msg 550 390 1 2 3 4 5 6 7 8 9 10 11 12 13 14 15 16 17 18 19 20 21
22 23 24 25 26 27 28 29;
#X obj 232 485 list-apply pow -1;
#X obj 232 525 list;
#X msg 102 565 \; oscillator2 sinesum 1027 \$1 \$2 \$3 \$4 \$5 \$6
\$7 \$8 \$9 \$10 \$11 \$12 \$13 \$14 \$15 \$16 \$17 \$18 \$19 \$20
\$21 \$22 \$23 \$24 \$25 \$26 \$27 \$28 \$29;
#X floatatom 442 195 5 0 0 0 - - -, f 5;
#X msg 452 95 2;
#X floatatom 502 95 5 0 0 0 - - -, f 5;
#X msg 283 16 200;
#X msg 303 69 500;
#X obj 452 125 pow \$1;
#X msg 442 245 add2 \$1;
#X obj 212 115 t b b f b b b b b;
#X obj 452 155 + 3;
#X msg 194 32 40;
#X obj 100 30 inlet;
#X obj 500 50 inlet;
#X text 60 10 Number of harmonics;
#X text 480 20 Power of 2 for size of wavetable;
#X msg 322 285 add2 oscillator2 sinesum;
#X msg 740 580 \; oscillator2 normalize;
#X connect 0 0 15 0;
#X connect 1 0 15 0;
#X connect 2 0 15 0;
#X connect 3 0 4 0;
#X connect 4 0 5 0;
#X connect 4 0 1 0;
#X connect 4 0 10 0;
#X connect 5 0 4 1;
#X connect 6 0 4 1;
#X connect 7 0 23 0;
#X connect 8 0 12 0;
#X connect 9 0 11 0;
#X connect 10 0 9 0;
#X connect 11 0 8 0;
#X connect 12 0 13 0;
#X connect 12 0 31 0;
#X connect 13 0 14 0;
#X connect 14 0 15 0;
#X connect 16 0 22 0;
#X connect 17 0 21 0;
#X connect 18 0 21 1;
#X connect 19 0 7 0;
#X connect 20 0 23 0;
#X connect 21 0 24 0;
#X connect 22 0 15 0;
#X connect 23 0 12 0;
#X connect 23 1 9 0;
#X connect 23 2 3 0;
#X connect 23 3 9 1;
#X connect 23 3 6 0;
#X connect 23 4 17 0;
#X connect 23 5 30 0;
#X connect 23 6 0 0;
#X connect 23 7 2 0;
#X connect 24 0 16 0;
#X connect 25 0 7 0;
#X connect 26 0 7 0;
#X connect 27 0 18 0;
#X connect 30 0 15 0;
#X restore -70 890 pd sawtoothConfig2;
#N canvas 0 22 1792 1095 triangleConfig2 0;
#X obj 190 -410 until;
#X obj 190 -380 f;
#X msg 250 -420 1;
#X floatatom 237 -527 5 0 0 0 - - -, f 5;
#X obj 350 -120 list trim;
#X obj 350 -180 list store;
#X msg 350 -209 append \$1;
#X obj 350 -150 list prepend set;
#X msg 700 -130 1 -9 25 -49 81 -121 169 -225 289 -361 441 -529 625
-729 841 -961 1089 -1225 1369 -1521 1681 -1849 2025 -2209 2401 -2601
2809 -3025 3249 -3481 3721 -3969 4225 -4489 4761 -5041 5329 -5625 5929
-6241;
#X obj 400 10 list-apply pow -1;
#X obj 380 50 list;
#X floatatom 668 -415 5 0 0 0 - - -, f 5;
#X msg 678 -515 2;
#X floatatom 728 -515 5 0 0 0 - - -, f 5;
#X msg 301 -579 200;
#X msg 321 -526 500;
#X obj 678 -485 pow \$1;
#X msg 668 -365 add2 \$1;
#X obj 678 -455 + 3;
#X msg 212 -563 40;
#X obj 118 -565 inlet;
#X obj 726 -560 inlet;
#X text 78 -585 Number of harmonics;
#X text 706 -590 Power of 2 for size of wavetable;
#X obj 230 -480 t b b f b b b;
#X obj 240 -380 + 1;
#X obj 190 -338 * 2;
#X obj 190 -310 - 1;
#X obj 190 -280 pow 2;
#X msg 180 120 \; oscillator2 sinesum 259 \$1 0 \$2 0 \$3 0 \$4 0 \$5
0 \$6 0 \$7 0 \$8 0 \$9 0 \$10 0 \$11 0 \$12 0 \$13 0 \$14 0 \$15 0
\$16 0 \$17 0 \$18 0 \$19 0 \$20 0 \$21 0 \$22 0 \$23 0 \$24 0 \$25
0 \$26 0 \$27 0 \$28 0 \$29 0 \$30 0 \$31 0 \$32 0 \$33 0 \$34 0 \$35
0 \$36 0 \$37 0 \$38 0 \$39 0 \$40 0;
#X msg 40 -140 adddollar \$1 \, add2 0;
#X obj 450 -280 tgl 15 0 empty empty empty 17 7 0 10 #fcfcfc #000000
#000000 1 1;
#X obj 220 -250 expr if ($f2 == 1 \, $f1 \, $f1 * -1);
#X msg 450 -310 1;
#X msg 320 -410 set \, add \, add2 oscillator2 sinesum;
#X msg 720 20 \; oscillator2 normalize;
#X connect 0 0 1 0;
#X connect 0 0 31 0;
#X connect 1 0 25 0;
#X connect 1 0 26 0;
#X connect 1 0 30 0;
#X connect 2 0 1 1;
#X connect 3 0 24 0;
#X connect 4 0 8 0;
#X connect 5 0 7 0;
#X connect 6 0 5 0;
#X connect 7 0 4 0;
#X connect 8 0 9 0;
#X connect 8 0 35 0;
#X connect 9 0 10 0;
#X connect 10 0 29 0;
#X connect 11 0 17 0;
#X connect 12 0 16 0;
#X connect 13 0 16 1;
#X connect 14 0 3 0;
#X connect 15 0 24 0;
#X connect 16 0 18 0;
#X connect 17 0 29 0;
#X connect 18 0 11 0;
#X connect 19 0 3 0;
#X connect 20 0 3 0;
#X connect 21 0 13 0;
#X connect 24 0 8 0;
#X connect 24 1 5 0;
#X connect 24 2 0 0;
#X connect 24 3 5 1;
#X connect 24 3 2 0;
#X connect 24 4 12 0;
#X connect 24 5 34 0;
#X connect 24 5 33 0;
#X connect 25 0 1 1;
#X connect 26 0 27 0;
#X connect 27 0 28 0;
#X connect 28 0 32 0;
#X connect 30 0 29 0;
#X connect 31 0 32 1;
#X connect 32 0 6 0;
#X connect 33 0 31 0;
#X connect 34 0 29 0;
#X restore 90 890 pd triangleConfig2;
#X obj -210 -300 hsl 220 30 0 100 0 0 empty empty Number\ of\ Harmonics
21 13 0 15 #f76d3c #000000 #f8d843 12264 1;
#X obj 40 -300 hsl 220 30 0 40 0 0 empty empty Number\ of\ Harmonics
19 13 0 15 #f76d3c #000000 #f8d843 4927 1;
#X obj 290 -300 hsl 220 30 0 100 0 0 empty empty Number\ of\ Harmonics
25 12 0 15 #f76d3c #000000 #f8d843 10731 1;
#X obj -210 280 hsl 220 30 0 100 0 0 empty empty Number\ of\ Harmonics
34 14 0 15 #923ccd #000000 #f8d843 6351 1;
#X obj 40 280 hsl 220 30 0 40 0 0 empty empty Number\ of\ Harmonics
26 12 0 15 #923ccd #000000 #f8d843 21900 1;
#X obj 290 280 hsl 220 30 0 100 0 0 empty empty Number\ of\ Harmonics
33 12 0 15 #923ccd #000000 #f8d843 6351 1;
#X obj -210 -240 hradio 25 0 0 9 empty empty Wavetable\ Resolution
23 11 0 15 #f76d3c #000000 #f8d843 7;
#X obj -60 -260 + 3;
#X obj 40 -240 hradio 25 0 0 9 empty empty Wavetable\ Resolution 24
12 0 15 #f76d3c #000000 #f8d843 7;
#X obj 200 -260 + 3;
#X obj 290 -240 hradio 25 0 0 9 empty empty Wavetable\ Resolution 24
10 0 15 #f76d3c #000000 #f8d843 7;
#X obj 440 -260 + 3;
#X obj -210 340 hradio 25 0 0 9 empty empty Wavetable\ Resolution 15
10 0 15 #923ccd #000000 #f8d843 7;
#X obj -100 370 + 3;
#X obj 40 340 hradio 25 0 0 9 empty empty Wavetable\ Resolution 24
10 0 15 #923ccd #000000 #f8d843 7;
#X obj 190 370 + 3;
#X obj 290 340 hradio 25 0 0 9 empty empty Wavetable\ Resolution 26
10 0 15 #923ccd #000000 #f8d843 7;
#X obj 390 370 + 3;
#X obj 40 -370 bng 50 100 50 0 empty empty Triangle\ Wave 55 23 0 15
#f76d3c #000000 #000000;
#X obj 290 -370 bng 50 100 50 0 empty empty Square\ Wave 55 23 0 15
#f76d3c #000000 #000000;
#X obj -210 210 bng 50 100 50 0 empty empty Sawtooth\ Wave 54 41 0
15 #923ccd #000000 #000000;
#X obj 40 210 bng 50 100 50 0 empty empty Triangle\ Wave 55 41 0 15
#923ccd #000000 #000000;
#X obj 290 210 bng 50 100 50 0 empty empty Square\ Wave 54 39 0 15
#923ccd #000000 #000000;
#X obj 40 -500 int;
#X obj 240 -500 int;
#X obj 390 -500 int;
#X obj -90 800 int;
#X obj 70 800 int;
#X obj 230 800 int;
#N canvas 0 0 1792 1095 sequencer 0;
#X obj 210 -900 bng 15 250 50 0 empty empty empty 17 7 0 10 #fcfcfc
#000000 #000000;
#X obj 240 -900 bng 15 250 50 0 empty empty empty 17 7 0 10 #fcfcfc
#000000 #000000;
#X obj 270 -900 bng 15 250 50 0 empty empty empty 17 7 0 10 #fcfcfc
#000000 #000000;
#X obj 300 -900 bng 15 250 50 0 empty empty empty 17 7 0 10 #fcfcfc
#000000 #000000;
#X obj 330 -900 bng 15 250 50 0 empty empty empty 17 7 0 10 #fcfcfc
#000000 #000000;
#X obj 360 -900 bng 15 250 50 0 empty empty empty 17 7 0 10 #fcfcfc
#000000 #000000;
#X obj 390 -900 bng 15 250 50 0 empty empty empty 17 7 0 10 #fcfcfc
#000000 #000000;
#X obj 420 -900 bng 15 250 50 0 empty empty empty 17 7 0 10 #fcfcfc
#000000 #000000;
#X obj 450 -900 bng 15 250 50 0 empty empty empty 17 7 0 10 #fcfcfc
#000000 #000000;
#X obj 480 -900 bng 15 250 50 0 empty empty empty 17 7 0 10 #fcfcfc
#000000 #000000;
#X obj 510 -900 bng 15 250 50 0 empty empty empty 17 7 0 10 #fcfcfc
#000000 #000000;
#X obj 540 -900 bng 15 250 50 0 empty empty empty 17 7 0 10 #fcfcfc
#000000 #000000;
#X obj 570 -900 bng 15 250 50 0 empty empty empty 17 7 0 10 #fcfcfc
#000000 #000000;
#X obj 600 -900 bng 15 250 50 0 empty empty empty 17 7 0 10 #fcfcfc
#000000 #000000;
#X obj 630 -900 bng 15 250 50 0 empty empty empty 17 7 0 10 #fcfcfc
#000000 #000000;
#X obj 660 -900 bng 15 250 50 0 empty empty empty 17 7 0 10 #fcfcfc
#000000 #000000;
#X obj 680 -920 bng 15 250 50 0 empty empty empty 17 7 0 10 #fcfcfc
#000000 #000000;
#X obj 350 -1021 counter;
#X obj 350 -1061 metro;
#X obj 630 -360 tgl 50 0 empty empty START\ Sequencer-> -144 3 0 14
#00ff4a #000000 #000000 0 1;
#X floatatom 350 -981 5 0 0 0 - - -, f 5;
#X obj 490 -1001 bng 15 250 50 0 empty empty empty 17 7 0 10 #fcfcfc
#000000 #000000;
#X obj 400 -981 moses 16;
#X obj 700 -1130 vsl 15 128 10 690 0 0 empty sequencerSpeed sequencer\ speed
-98 11 0 10 #fcfcfc #000000 #000000 18 1;
#X obj 300 -500 spigot;
#X obj 710 -60 tgl 50 0 empty empty empty 17 7 0 10 #98cb4a #000000
#000000 0 1;
#X obj 780 -60 tgl 50 0 empty empty empty 17 7 0 10 #98cb4a #000000
#000000 0 1;
#X obj 850 -60 tgl 50 0 empty empty empty 17 7 0 10 #98cb4a #000000
#000000 0 1;
#X obj 920 -60 tgl 50 0 empty empty empty 17 7 0 10 #98cb4a #000000
#000000 0 1;
#X obj 740 -10 bng 20 250 50 0 empty empty empty 17 7 0 10 #fcfcfc
#ff0026 #000000;
#X obj 370 -500 spigot;
#X obj 810 -10 bng 20 250 50 0 empty empty empty 17 7 0 10 #fcfcfc
#ff0026 #000000;
#X obj 440 -500 spigot;
#X obj 880 -10 bng 20 250 50 0 empty empty empty 17 7 0 10 #fcfcfc
#ff0026 #000000;
#X obj 510 -500 spigot;
#X obj 950 -10 bng 20 250 50 0 empty empty empty 17 7 0 10 #fcfcfc
#ff0026 #000000;
#X obj 300 -600 spigot;
#X obj 710 -160 tgl 50 0 empty empty empty 17 7 0 10 #98cb4a #000000
#000000 0 1;
#X obj 780 -160 tgl 50 0 empty empty empty 17 7 0 10 #98cb4a #000000
#000000 0 1;
#X obj 850 -160 tgl 50 0 empty empty empty 17 7 0 10 #98cb4a #000000
#000000 0 1;
#X obj 920 -160 tgl 50 0 empty empty empty 17 7 0 10 #98cb4a #000000
#000000 0 1;
#X obj 740 -110 bng 20 250 50 0 empty empty empty 17 7 0 10 #fcfcfc
#ff0026 #000000;
#X obj 370 -600 spigot;
#X obj 810 -110 bng 20 250 50 0 empty empty empty 17 7 0 10 #fcfcfc
#ff0026 #000000;
#X obj 440 -600 spigot;
#X obj 880 -110 bng 20 250 50 0 empty empty empty 17 7 0 10 #fcfcfc
#ff0026 #000000;
#X obj 510 -600 spigot;
#X obj 950 -110 bng 20 250 50 0 empty empty empty 17 7 0 10 #fcfcfc
#ff0026 #000000;
#X obj 300 -700 spigot;
#X obj 710 -260 tgl 50 0 empty empty empty 17 7 0 10 #98cb4a #000000
#000000 0 1;
#X obj 780 -260 tgl 50 0 empty empty empty 17 7 0 10 #98cb4a #000000
#000000 0 1;
#X obj 850 -260 tgl 50 0 empty empty empty 17 7 0 10 #98cb4a #000000
#000000 0 1;
#X obj 920 -260 tgl 50 0 empty empty empty 17 7 0 10 #98cb4a #000000
#000000 0 1;
#X obj 740 -210 bng 20 250 50 0 empty empty empty 17 7 0 10 #fcfcfc
#ff0026 #000000;
#X obj 370 -700 spigot;
#X obj 810 -210 bng 20 250 50 0 empty empty empty 17 7 0 10 #ffffff
#ff0026 #000000;
#X obj 440 -700 spigot;
#X obj 880 -210 bng 20 250 50 0 empty empty empty 17 7 0 10 #fcfcfc
#ff0026 #000000;
#X obj 510 -700 spigot;
#X obj 950 -210 bng 20 250 50 0 empty empty empty 17 7 0 10 #fcfcfc
#ff0026 #000000;
#X obj 300 -800 spigot;
#X obj 710 -360 tgl 50 0 empty empty empty 18 24 0 20 #95c848 #000000
#000000 0 1;
#X obj 780 -360 tgl 50 0 empty empty empty 17 7 0 10 #98cb4a #000000
#000000 0 1;
#X obj 850 -360 tgl 50 0 empty empty empty 17 7 0 10 #98cb4a #000000
#000000 0 1;
#X obj 920 -360 tgl 50 0 empty empty empty 17 7 0 10 #98cb4a #000000
#000000 0 1;
#X obj 370 -800 spigot;
#X obj 810 -310 bng 20 250 50 0 empty empty empty 17 7 0 10 #fcfcfc
#ff0026 #000000;
#X obj 440 -800 spigot;
#X obj 880 -310 bng 20 250 50 0 empty empty empty 17 7 0 10 #fcfcfc
#ff0026 #000000;
#X obj 510 -800 spigot;
#X obj 950 -310 bng 20 250 50 0 empty empty empty 17 7 0 10 #fcfcfc
#ff0026 #000000;
#X text 163 -308 C#;
#X text 233 -308 D#;
#X text 363 -308 F#;
#X text 433 -308 G#;
#X text 503 -308 A#;
#X obj 40 90 key;
#X floatatom 160 90 5 0 0 0 - - -, f 5;
#X obj -70 180 sel 113;
#X obj -20 140 sel 50;
#X obj 30 180 sel 119;
#X obj 70 140 sel 51;
#X obj 130 180 sel 101;
#X obj 230 180 sel 114;
#X obj 340 180 sel 116;
#X obj 280 140 sel 53;
#X obj 400 140 sel 54;
#X obj 450 180 sel 121;
#X obj 480 140 sel 55, f 8;
#X obj 530 180 sel 117;
#X obj 780 -310 tgl 30 0 empty empty empty 17 7 0 10 #fcfcfc #000000
#000000 1 1;
#X obj 850 -310 tgl 30 0 empty empty empty 17 7 0 10 #fcfcfc #000000
#000000 0 1;
#X obj 920 -310 tgl 30 0 empty empty empty 17 7 0 10 #fcfcfc #000000
#000000 0 1;
#X obj 710 -210 tgl 30 0 empty empty empty 17 7 0 10 #fcfcfc #000000
#000000 0 1;
#X obj 780 -210 tgl 30 0 empty empty empty 17 7 0 10 #fcfcfc #000000
#000000 0 1;
#X obj 850 -210 tgl 30 0 empty empty empty 17 7 0 10 #fcfcfc #000000
#000000 0 1;
#X obj 920 -210 tgl 30 0 empty empty empty 17 7 0 10 #fcfcfc #000000
#000000 0 1;
#X obj 710 -110 tgl 30 0 empty empty empty 17 7 0 10 #fcfcfc #000000
#000000 0 1;
#X obj 780 -110 tgl 30 0 empty empty empty 17 7 0 10 #fcfcfc #000000
#000000 0 1;
#X obj 850 -110 tgl 30 0 empty empty empty 17 7 0 10 #fcfcfc #000000
#000000 0 1;
#X obj 920 -110 tgl 30 0 empty empty empty 17 7 0 10 #fcfcfc #000000
#000000 0 1;
#X obj 710 -10 tgl 30 0 empty empty empty 17 7 0 10 #fcfcfc #000000
#000000 0 1;
#X obj 780 -10 tgl 30 0 empty empty empty 17 7 0 10 #fcfcfc #000000
#000000 0 1;
#X obj 850 -10 tgl 30 0 empty empty empty 17 7 0 10 #fcfcfc #000000
#000000 0 1;
#X obj 920 -10 tgl 30 0 empty empty empty 17 7 0 10 #fcfcfc #000000
#000000 0 1;
#X obj 740 -310 bng 20 250 50 0 empty empty empty 17 7 0 10 #ffffff
#ff0026 #000000;
#X obj 710 -310 tgl 30 0 empty empty empty 17 7 0 10 #fcfcfc #000000
#000000 0 1;
#X obj 310 -951 select 0 1 2 3 4 5 6 7 8 9 10 11 12 13 14 15;
#X obj 120 320 mtof;
#X msg -70 240 36;
#X msg -20 240 37;
#X msg 830 240 52;
#X msg 30 240 38;
#X msg 80 240 39;
#X msg 130 240 40;
#X msg 230 240 41;
#X msg 290 240 42;
#X msg 340 240 43;
#X msg 410 240 44;
#X msg 460 240 45;
#X msg 510 240 46;
#X msg 560 240 47;
#X msg 630 240 48;
#X msg 680 240 49;
#X msg 740 240 50;
#X msg 790 240 51;
#X obj 123 -209 bng 50 250 50 0 empty empty Q 19 21 0 20 #fcfcfc #000000
#000000;
#X obj 193 -209 bng 50 250 50 0 empty empty W 19 22 0 20 #fcfcfc #000000
#000000;
#X obj 263 -209 bng 50 250 50 0 empty empty E 19 21 0 20 #fcfcfc #000000
#000000;
#X obj 333 -209 bng 50 250 50 0 empty empty R 19 21 0 20 #fcfcfc #000000
#000000;
#X obj 363 -289 bng 50 250 50 0 empty empty 5 20 22 0 20 #000000 #ffffff
#ffffff;
#X obj 403 -209 bng 50 250 50 0 empty empty T 19 22 0 20 #fcfcfc #000000
#000000;
#X obj 433 -289 bng 50 250 50 0 empty empty 6 19 21 0 20 #000000 #ffffff
#ffffff;
#X obj 473 -209 bng 50 250 50 0 empty empty Y 20 22 0 20 #fcfcfc #000000
#000000;
#X obj 503 -289 bng 50 250 50 0 empty empty 7 19 21 0 20 #000000 #ffffff
#ffffff;
#X obj 543 -209 bng 50 250 50 0 empty empty U 19 22 0 20 #fcfcfc #000000
#000000;
#X obj 233 -289 bng 50 250 50 0 empty empty 3 19 21 0 20 #000000 #ffffff
#ffffff;
#X obj 163 -289 bng 50 250 50 0 empty empty 2 18 21 0 20 #000000 #ffffff
#ffffff;
#X text 160 -130 C#;
#X text 230 -130 D#;
#X text 360 -130 F#;
#X text 430 -130 G#;
#X text 500 -130 A#;
#X obj 120 -31 bng 50 250 50 0 empty empty Z 20 22 0 20 #fcfcfc #000000
#000000;
#X obj 190 -31 bng 50 250 50 0 empty empty X 19 22 0 20 #fcfcfc #000000
#000000;
#X obj 260 -31 bng 50 250 50 0 empty empty C 19 21 0 20 #fcfcfc #000000
#000000;
#X obj 330 -31 bng 50 250 50 0 empty empty V 19 22 0 20 #fcfcfc #000000
#000000;
#X obj 360 -111 bng 50 250 50 0 empty empty G 21 22 0 20 #000000 #ffffff
#ffffff;
#X obj 400 -31 bng 50 250 50 0 empty empty B 20 21 0 20 #fcfcfc #000000
#000000;
#X obj 430 -111 bng 50 250 50 0 empty empty H 20 21 0 20 #000000 #ffffff
#ffffff;
#X obj 470 -31 bng 50 250 50 0 empty empty N 19 21 0 20 #fcfcfc #000000
#000000;
#X obj 500 -111 bng 50 250 50 0 empty empty J 20 21 0 20 #000000 #ffffff
#ffffff;
#X obj 540 -31 bng 50 250 50 0 empty empty M 20 21 0 20 #fcfcfc #000000
#000000;
#X obj 230 -111 bng 50 250 50 0 empty empty D 19 21 0 20 #000000 #ffffff
#ffffff;
#X obj 160 -111 bng 50 250 50 0 empty empty S 19 21 0 20 #000000 #ffffff
#ffffff;
#X msg 880 240 53;
#X msg 930 240 54;
#X msg 980 240 55;
#X msg 1050 240 56;
#X msg 1100 240 57;
#X msg 1160 240 58;
#X msg 1210 240 59;
#X msg 1250 240 60;
#X obj 606 -31 bng 50 250 50 0 empty empty COMMA 10 23 0 10 #ffffff
#000000 #000000;
#X text 123 -229 C2;
#X text 120 -50 C3;
#X text 606 -51 C4;
#X text 193 -228 D2;
#X text 263 -228 E2;
#X text 333 -228 F2;
#X text 403 -228 G2;
#X text 473 -228 A2;
#X text 543 -228 B2;
#X text 190 -50 D3;
#X text 260 -50 E3;
#X text 330 -50 F3;
#X text 400 -50 G3;
#X text 470 -50 A3;
#X text 540 -50 B3;
#X obj 380 420 f;
#X obj 480 420 f;
#X obj 580 420 f;
#X obj 680 420 f;
#X obj 380 520 f;
#X obj 480 520 f;
#X obj 580 520 f;
#X obj 680 520 f;
#X obj 380 620 f;
#X obj 480 620 f;
#X obj 580 620 f;
#X obj 680 620 f;
#X obj 380 720 f;
#X obj 480 720 f;
#X obj 580 720 f;
#X obj 680 720 f;
#X obj 398 370 spigot;
#X obj 498 370 spigot;
#X obj 598 370 spigot;
#X obj 698 370 spigot;
#X obj 398 470 spigot;
#X obj 498 470 spigot;
#X obj 598 470 spigot;
#X obj 698 470 spigot;
#X obj 398 570 spigot;
#X obj 498 570 spigot;
#X obj 598 570 spigot;
#X obj 698 570 spigot;
#X obj 398 670 spigot;
#X obj 498 670 spigot;
#X obj 598 670 spigot;
#X obj 698 670 spigot;
#X floatatom 416 400 5 0 0 0 - - -, f 5;
#X floatatom 518 400 5 0 0 0 - - -, f 5;
#X floatatom 618 400 5 0 0 0 - - -, f 5;
#X floatatom 718 400 5 0 0 0 - - -, f 5;
#X floatatom 418 500 5 0 0 0 - - -, f 5;
#X floatatom 520 500 5 0 0 0 - - -, f 5;
#X floatatom 620 500 5 0 0 0 - - -, f 5;
#X floatatom 720 500 5 0 0 0 - - -, f 5;
#X floatatom 418 600 5 0 0 0 - - -, f 5;
#X floatatom 520 600 5 0 0 0 - - -, f 5;
#X floatatom 620 600 5 0 0 0 - - -, f 5;
#X floatatom 720 600 5 0 0 0 - - -, f 5;
#X floatatom 418 700 5 0 0 0 - - -, f 5;
#X floatatom 520 700 5 0 0 0 - - -, f 5;
#X floatatom 620 700 5 0 0 0 - - -, f 5;
#X floatatom 720 700 5 0 0 0 - - -, f 5;
#X floatatom 1190 -360 5 0 0 0 - - -, f 5;
#X obj 1170 -290 route 0 1 2 3 4 5 6 7 8 9 10 11 12 13 14 15;
#X msg 1420 -50 0;
#X obj 1480 -160 t f b;
#X msg 1180 -320 \$1 1;
#X obj 610 180 sel 122;
#X obj 670 140 sel 115;
#X obj 720 180 sel 120;
#X obj 770 140 sel 100;
#X obj 820 180 sel 99;
#X obj 920 180 sel 118;
#X obj 970 140 sel 103;
#X obj 1030 180 sel 98;
#X obj 1090 140 sel 104;
#X obj 1140 180 sel 110;
#X obj 1170 140 sel 106, f 8;
#X obj 1220 180 sel 109;
#X obj 1300 180 sel 44;
#X obj -40 460 outlet;
#X obj 630 -310 bng 25 50 10 0 empty empty empty 17 7 0 10 #00ff42
#000000 #000000;
#X obj 610 -180 send tabwriteADSR;
#X obj 90 400 send note;
#X obj -220 -490 route 36 37 38 39 40 41 42 43 44 45 46 47 48 49 50
51 52 53 54 55 56 57 58 59 60;
#X obj -170 530 ftom;
#X obj 153 -228 bng 20 250 50 0 empty empty empty 17 7 0 10 #fcfcfc
#000000 #000000;
#X obj 223 -228 bng 20 250 50 0 empty empty empty 17 7 0 10 #fcfcfc
#000000 #000000;
#X obj 293 -228 bng 20 250 50 0 empty empty empty 17 7 0 10 #fcfcfc
#000000 #000000;
#X obj 363 -228 bng 20 250 50 0 empty empty empty 17 7 0 10 #fcfcfc
#000000 #000000;
#X obj 393 -308 bng 20 250 50 0 empty empty empty 17 7 0 10 #fcfcfc
#000000 #000000;
#X obj 433 -228 bng 20 250 50 0 empty empty empty 17 7 0 10 #fcfcfc
#000000 #000000;
#X obj 463 -308 bng 20 250 50 0 empty empty empty 17 7 0 10 #fcfcfc
#000000 #000000;
#X obj 503 -228 bng 20 250 50 0 empty empty empty 17 7 0 10 #fcfcfc
#000000 #000000;
#X obj 533 -308 bng 20 250 50 0 empty empty empty 17 7 0 10 #fcfcfc
#000000 #000000;
#X obj 573 -228 bng 20 250 50 0 empty empty empty 17 7 0 10 #fcfcfc
#000000 #000000;
#X obj 263 -308 bng 20 250 50 0 empty empty empty 17 7 0 10 #fcfcfc
#000000 #000000;
#X obj 193 -308 bng 20 250 50 0 empty empty empty 17 7 0 10 #fcfcfc
#000000 #000000;
#X obj 150 -50 bng 20 250 50 0 empty empty empty 17 7 0 10 #fcfcfc
#000000 #000000;
#X obj 220 -50 bng 20 250 50 0 empty empty empty 17 7 0 10 #fcfcfc
#000000 #000000;
#X obj 290 -50 bng 20 250 50 0 empty empty empty 17 7 0 10 #fcfcfc
#000000 #000000;
#X obj 360 -50 bng 20 250 50 0 empty empty empty 17 7 0 10 #fcfcfc
#000000 #000000;
#X obj 390 -130 bng 20 250 50 0 empty empty empty 17 7 0 10 #fcfcfc
#000000 #000000;
#X obj 430 -50 bng 20 250 50 0 empty empty empty 17 7 0 10 #fcfcfc
#000000 #000000;
#X obj 460 -130 bng 20 250 50 0 empty empty empty 17 7 0 10 #fcfcfc
#000000 #000000;
#X obj 500 -50 bng 20 250 50 0 empty empty empty 17 7 0 10 #fcfcfc
#000000 #000000;
#X obj 530 -130 bng 20 250 50 0 empty empty empty 17 7 0 10 #fcfcfc
#000000 #000000;
#X obj 570 -50 bng 20 250 50 0 empty empty empty 17 7 0 10 #fcfcfc
#000000 #000000;
#X obj 260 -130 bng 20 250 50 0 empty empty empty 17 7 0 10 #fcfcfc
#000000 #000000;
#X obj 190 -130 bng 20 250 50 0 empty empty empty 17 7 0 10 #fcfcfc
#000000 #000000;
#X obj 636 -50 bng 20 250 50 0 empty empty empty 17 7 0 10 #fcfcfc
#000000 #000000;
#X floatatom 790 -920 5 0 0 0 - - -, f 5;
#X floatatom 550 -1020 5 0 0 0 - - -, f 5;
#X obj 550 -1050 -;
#X msg 550 -1080 700;
#X obj 890 -950 bng 15 250 50 0 empty empty empty 17 7 0 10 #fcfcfc
#000000 #000000;
#X text 930 -960 The sequencer speed is inverted so that moving the
slider to the right makes it faster: this makes more visual sense for
the GUI;
#X obj 750 -880 s sequencerSpeedInverse;
#X obj 55 714 send note2;
#X text 1211 227 A fader between oscillator 1 and oscillator 2;
#N canvas 222 22 1570 1095 sequencer_wavetable_duplicate_ForKeyboard
0;
#X obj 616 245 vsl 15 128 22 5000 1 0 empty empty Frequency -16 -12
0 10 #fcfcfc #000000 #000000 2685 1;
#X obj 697 275 tabosc4~ oscillator;
#X obj 746 375 *~;
#X obj 850 275 tabosc4~ oscillator2;
#X obj 697 305 *~;
#X obj 850 314 *~;
#X floatatom 850 174 5 0 0 0 - - -, f 5;
#X floatatom 790 174 5 0 0 0 - - -, f 5;
#X msg 790 114 1;
#X obj 790 144 -;
#X obj 780 214 vline~;
#X obj 856 215 vline~;
#X msg 730 164 100;
#X obj 704 534 outlet~;
#N canvas 222 22 1570 1095 ADSR2 0;
#X floatatom 793 401 5 0 0 0 - - -, f 5;
#X floatatom 923 401 5 0 0 0 - - -, f 5;
#X obj 809 551 vline~;
#X obj 793 431 f;
#X obj 849 441 f;
#X text 900 140 A simple ADSR envolope using vline which is the same
total length as the sequencer speed \, and the Attack \, decay \, sustain
\, and release times are all 1 quarter of the sequencer speed.;
#X obj 730 160 hsl 128 15 0 0.5 0 0 empty empty ADSR\ fader -2 -8 0
10 #fcfcfc #000000 #000000 12700 1;
#X floatatom 720 250 5 0 0 0 - - -, f 5;
#X floatatom 800 250 5 0 0 0 - - -, f 5;
#X msg 740 190 1;
#X obj 740 220 -;
#X obj 809 472 pack f f f;
#X msg 809 521 1 \$1 0 \, \$3 \$1 \$1 \, 0 \$1 \$2;
#X obj 789 371 * \$1;
#X obj 923 371 * \$1;
#X obj 860 260 bng 15 250 50 0 empty empty empty 17 7 0 10 #fcfcfc
#000000 #000000;
#X text 1290 350 This comes from sequencer speed in ms \, so that one
ADSR lasts as long as one tick in the sequencer;
#X obj 610 670 outlet~;
#X obj 700 440 bng 30 250 50 0 empty empty empty 17 7 0 10 #fcfcfc
#000000 #000000;
#X floatatom 1310 440 5 0 0 0 - - -, f 5;
#X obj 1307 403 r sequencerSpeedInverse;
#X obj 1050 360 hsl 128 15 0 1 0 0 empty empty ADSR\ Sustain -2 -8
0 10 #fcfcfc #000000 #000000 11430 1;
#X floatatom 1020 420 5 0 0 0 - - -, f 5;
#X obj 690 100 r ADSRfader;
#X obj 1009 271 r ADSRsustain;
#X obj 680 370 r note2;
#X text 800 20 A duplicate of the ADSR with all the same message values
so that it is idential to the one on the mian sequencer except only
triggers when the keyboard is used: some messages like the one for
resizing the ADSR array have been removed as they would be redundant
;
#X text 310 370 Activate envolope when one of the keys is pressed;
#X connect 0 0 3 1;
#X connect 1 0 4 1;
#X connect 2 0 17 0;
#X connect 3 0 11 0;
#X connect 4 0 11 1;
#X connect 6 0 7 0;
#X connect 6 0 9 0;
#X connect 6 0 15 0;
#X connect 7 0 10 1;
#X connect 7 0 13 1;
#X connect 8 0 14 1;
#X connect 9 0 10 0;
#X connect 10 0 8 0;
#X connect 11 0 12 0;
#X connect 12 0 2 0;
#X connect 13 0 0 0;
#X connect 14 0 1 0;
#X connect 15 0 13 0;
#X connect 15 0 14 0;
#X connect 18 0 3 0;
#X connect 18 0 4 0;
#X connect 19 0 14 0;
#X connect 19 0 13 0;
#X connect 20 0 19 0;
#X connect 21 0 22 0;
#X connect 22 0 11 2;
#X connect 23 0 6 0;
#X connect 24 0 21 0;
#X connect 25 0 18 0;
#X coords 0 0 1 1 500 274 0;
#X restore 900 370 pd ADSR2;
#X obj 550 150 inlet;
#X obj 790 50 inlet;
#X obj 880 50 inlet;
#X text 970 150 A duplicate of the main sequencer oscillator so that
the keyboard can play tones in isolation from it: some elements have
been removed as they were redundant.;
#X obj 890 540 outlet~;
#X connect 0 0 1 0;
#X connect 0 0 3 0;
#X connect 1 0 4 0;
#X connect 2 0 13 0;
#X connect 3 0 5 0;
#X connect 4 0 2 0;
#X connect 5 0 2 0;
#X connect 6 0 9 1;
#X connect 6 0 11 0;
#X connect 6 0 12 0;
#X connect 7 0 10 0;
#X connect 7 0 12 0;
#X connect 8 0 9 0;
#X connect 9 0 7 0;
#X connect 10 0 4 1;
#X connect 11 0 5 1;
#X connect 12 0 10 1;
#X connect 12 0 11 1;
#X connect 14 0 2 1;
#X connect 14 0 19 0;
#X connect 15 0 0 0;
#X connect 16 0 8 0;
#X connect 17 0 6 0;
#X restore 1070 370 pd sequencer_wavetable_duplicate_ForKeyboard;
#X obj 1070 450 outlet~;
#X obj 1210 300 inlet;
#X obj 1280 310 inlet;
#X text 1010 -890 This inlet is for the swing level from 0 to 33% of
the sequencer period (full triplet swing);
#X obj 1010 -840 inlet;
#X obj 810 -730 * 0.333333;
#X floatatom 810 -690 5 0 0 0 - - -, f 5;
#X obj 1000 -810 vsl 15 128 0 1 0 0 empty empty swing 0 -9 0 10 #fcfcfc
#000000 #000000 0 1;
#X obj 930 -780 bng 15 250 50 0 empty empty empty 17 7 0 10 #fcfcfc
#000000 #000000;
#X floatatom 1000 -640 11 0 0 0 - - -, f 11;
#X obj 370 -850 del \$1;
#X obj 370 -820 bng 15 250 50 0 empty empty empty 17 7 0 10 #fcfcfc
#000000 #000000;
#X obj 510 -850 del \$1;
#X obj 510 -820 bng 15 250 50 0 empty empty empty 17 7 0 10 #fcfcfc
#000000 #000000;
#X obj 370 -750 del \$1;
#X obj 370 -720 bng 15 250 50 0 empty empty empty 17 7 0 10 #fcfcfc
#000000 #000000;
#X obj 510 -750 del \$1;
#X obj 510 -720 bng 15 250 50 0 empty empty empty 17 7 0 10 #fcfcfc
#000000 #000000;
#X obj 370 -650 del \$1;
#X obj 370 -620 bng 15 250 50 0 empty empty empty 17 7 0 10 #fcfcfc
#000000 #000000;
#X obj 510 -650 del \$1;
#X obj 510 -620 bng 15 250 50 0 empty empty empty 17 7 0 10 #fcfcfc
#000000 #000000;
#X obj 370 -550 del \$1;
#X obj 370 -520 bng 15 250 50 0 empty empty empty 17 7 0 10 #fcfcfc
#000000 #000000;
#X obj 510 -550 del \$1;
#X obj 510 -520 bng 15 250 50 0 empty empty empty 17 7 0 10 #fcfcfc
#000000 #000000;
#X obj 1500 -240 bng 15 250 50 0 empty empty empty 17 7 0 10 #fcfcfc
#000000 #000000;
#X msg 1486 -216 0;
#X obj -300 -500 loadbang;
#X msg 20 -630 1;
#X msg 140 -630 0;
#X msg -410 -140 36;
#X msg -350 -140 38;
#X msg -290 -140 40;
#X msg -240 -140 41;
#X msg -180 -140 43;
#X msg -120 -140 45;
#X msg -60 -140 47;
#X msg 0 -140 48;
#X text -350 -600 The preset values when the patch is loaded;
#X obj -410 -20 mtof;
#X obj -350 -20 mtof;
#X obj -300 -20 mtof;
#X obj -240 -20 mtof;
#X obj -190 -20 mtof;
#X obj -130 -20 mtof;
#X obj -80 -20 mtof;
#X obj -20 -20 mtof;
#X obj 460 -410 hradio 30 0 0 17 empty empty 1\ <------Sequencer\ Bit\ Edit\ Selector----->\ 16\ 0
12 13 0 17 #98cb4a #000000 #f15f75 1;
#X text 210 -422 Use this radio button to select one of the 16 sequencer
bits to edit--> Select "0" to deselect all., f 35;
#X text 120 -346 Use the computer keyboard layout below to edit the
selected sequencer bit or play along in real time., f 52;
#X obj 1320 450 outlet~;
#X msg -294 323 36;
#X msg -240 320 55;
#X obj -290 250 bng 15 250 50 0 empty empty empty 17 7 0 10 #fcfcfc
#000000 #000000;
#X msg -220 220 1;
#X msg -180 280 0;
#X obj -280 360 mtof;
#X obj -110 360 mtof;
#X obj -270 160 bng 15 250 50 0 empty empty empty 17 7 0 10 #fcfcfc
#000000 #000000;
#X msg -220 180 1;
#X obj -180 160 bng 15 250 50 0 empty empty empty 17 7 0 10 #fcfcfc
#000000 #000000;
#X msg -150 240 0;
#X obj -380 160 r PAdemo;
#X obj -270 120 r AVdemo;
#X obj -180 120 r AVdemo_stop;
#X obj 850 -640 r AVdemo;
#X obj 950 -540 metro 1000;
#X obj 1003 -598 r sequencerSpeedInverse;
#X obj 940 -560 tgl 15 0 empty empty empty 17 7 0 10 #fcfcfc #000000
#000000 0 1;
#X msg 890 -590 1;
#X msg 940 -590 0;
#X obj 915 -495 random 16;
#X obj 920 -520 bng 15 250 50 0 empty empty empty 17 7 0 10 #fcfcfc
#000000 #000000;
#X floatatom 902 -473 5 0 0 0 - - -, f 5;
#X obj 1030 -500 random 10;
#X obj 1036 -467 sel 0 1 2 3 4 5 6 7 8 9;
#X connect 0 0 60 0;
#X connect 1 0 296 0;
#X connect 2 0 67 0;
#X connect 3 0 298 0;
#X connect 4 0 48 0;
#X connect 5 0 300 0;
#X connect 6 0 56 0;
#X connect 7 0 302 0;
#X connect 8 0 36 0;
#X connect 9 0 304 0;
#X connect 10 0 44 0;
#X connect 11 0 306 0;
#X connect 12 0 24 0;
#X connect 13 0 308 0;
#X connect 14 0 32 0;
#X connect 15 0 310 0;
#X connect 17 0 20 0;
#X connect 17 0 22 0;
#X connect 18 0 17 0;
#X connect 19 0 18 0;
#X connect 20 0 107 0;
#X connect 20 0 246 0;
#X connect 21 0 17 3;
#X connect 22 1 21 0;
#X connect 23 0 276 0;
#X connect 23 0 280 0;
#X connect 23 0 279 0;
#X connect 24 0 29 0;
#X connect 25 0 24 1;
#X connect 26 0 30 1;
#X connect 27 0 32 1;
#X connect 28 0 34 1;
#X connect 29 0 191 0;
#X connect 30 0 31 0;
#X connect 31 0 192 0;
#X connect 32 0 33 0;
#X connect 33 0 193 0;
#X connect 34 0 35 0;
#X connect 35 0 194 0;
#X connect 36 0 41 0;
#X connect 37 0 36 1;
#X connect 38 0 42 1;
#X connect 39 0 44 1;
#X connect 40 0 46 1;
#X connect 41 0 187 0;
#X connect 42 0 43 0;
#X connect 43 0 188 0;
#X connect 44 0 45 0;
#X connect 45 0 189 0;
#X connect 46 0 47 0;
#X connect 47 0 190 0;
#X connect 48 0 53 0;
#X connect 49 0 48 1;
#X connect 50 0 54 1;
#X connect 51 0 56 1;
#X connect 52 0 58 1;
#X connect 53 0 183 0;
#X connect 54 0 55 0;
#X connect 55 0 184 0;
#X connect 56 0 57 0;
#X connect 57 0 185 0;
#X connect 58 0 59 0;
#X connect 59 0 186 0;
#X connect 60 0 105 0;
#X connect 61 0 60 1;
#X connect 62 0 65 1;
#X connect 63 0 67 1;
#X connect 64 0 69 1;
#X connect 65 0 66 0;
#X connect 66 0 180 0;
#X connect 67 0 68 0;
#X connect 68 0 181 0;
#X connect 69 0 70 0;
#X connect 70 0 182 0;
#X connect 76 0 77 0;
#X connect 76 0 78 0;
#X connect 76 0 79 0;
#X connect 76 0 80 0;
#X connect 76 0 81 0;
#X connect 76 0 82 0;
#X connect 76 0 83 0;
#X connect 76 0 84 0;
#X connect 76 0 85 0;
#X connect 76 0 86 0;
#X connect 76 0 87 0;
#X connect 76 0 88 0;
#X connect 76 0 89 0;
#X connect 76 0 232 0;
#X connect 76 0 233 0;
#X connect 76 0 234 0;
#X connect 76 0 235 0;
#X connect 76 0 236 0;
#X connect 76 0 237 0;
#X connect 76 0 238 0;
#X connect 76 0 239 0;
#X connect 76 0 240 0;
#X connect 76 0 241 0;
#X connect 76 0 242 0;
#X connect 76 0 243 0;
#X connect 76 0 244 0;
#X connect 78 0 109 0;
#X connect 78 0 126 0;
#X connect 79 0 110 0;
#X connect 79 0 137 0;
#X connect 80 0 112 0;
#X connect 80 0 127 0;
#X connect 81 0 113 0;
#X connect 81 0 136 0;
#X connect 82 0 114 0;
#X connect 82 0 128 0;
#X connect 83 0 115 0;
#X connect 83 0 129 0;
#X connect 84 0 117 0;
#X connect 84 0 131 0;
#X connect 85 0 116 0;
#X connect 85 0 130 0;
#X connect 86 0 118 0;
#X connect 86 0 132 0;
#X connect 87 0 119 0;
#X connect 87 0 133 0;
#X connect 88 0 120 0;
#X connect 88 0 134 0;
#X connect 89 0 121 0;
#X connect 89 0 135 0;
#X connect 90 0 196 1;
#X connect 91 0 197 1;
#X connect 92 0 198 1;
#X connect 93 0 199 1;
#X connect 94 0 200 1;
#X connect 95 0 201 1;
#X connect 96 0 202 1;
#X connect 97 0 203 1;
#X connect 98 0 204 1;
#X connect 99 0 205 1;
#X connect 100 0 206 1;
#X connect 101 0 207 1;
#X connect 102 0 208 1;
#X connect 103 0 209 1;
#X connect 104 0 210 1;
#X connect 105 0 179 0;
#X connect 106 0 195 1;
#X connect 107 0 0 0;
#X connect 107 1 1 0;
#X connect 107 2 2 0;
#X connect 107 3 3 0;
#X connect 107 4 4 0;
#X connect 107 5 5 0;
#X connect 107 6 6 0;
#X connect 107 7 7 0;
#X connect 107 8 8 0;
#X connect 107 9 9 0;
#X connect 107 10 10 0;
#X connect 107 11 11 0;
#X connect 107 12 12 0;
#X connect 107 13 13 0;
#X connect 107 14 14 0;
#X connect 107 15 15 0;
#X connect 107 16 16 0;
#X connect 108 0 195 0;
#X connect 108 0 210 0;
#X connect 108 0 209 0;
#X connect 108 0 208 0;
#X connect 108 0 207 0;
#X connect 108 0 206 0;
#X connect 108 0 205 0;
#X connect 108 0 204 0;
#X connect 108 0 203 0;
#X connect 108 0 202 0;
#X connect 108 0 201 0;
#X connect 108 0 200 0;
#X connect 108 0 199 0;
#X connect 108 0 198 0;
#X connect 108 0 197 0;
#X connect 108 0 196 0;
#X connect 108 0 283 0;
#X connect 108 0 285 0;
#X connect 109 0 108 0;
#X connect 110 0 108 0;
#X connect 111 0 108 0;
#X connect 112 0 108 0;
#X connect 113 0 108 0;
#X connect 114 0 108 0;
#X connect 115 0 108 0;
#X connect 116 0 108 0;
#X connect 117 0 108 0;
#X connect 118 0 108 0;
#X connect 119 0 108 0;
#X connect 120 0 108 0;
#X connect 121 0 108 0;
#X connect 122 0 108 0;
#X connect 123 0 108 0;
#X connect 124 0 108 0;
#X connect 125 0 108 0;
#X connect 126 0 109 0;
#X connect 127 0 112 0;
#X connect 128 0 114 0;
#X connect 129 0 115 0;
#X connect 130 0 116 0;
#X connect 131 0 117 0;
#X connect 132 0 118 0;
#X connect 133 0 119 0;
#X connect 134 0 120 0;
#X connect 135 0 121 0;
#X connect 136 0 113 0;
#X connect 137 0 110 0;
#X connect 143 0 122 0;
#X connect 144 0 124 0;
#X connect 145 0 111 0;
#X connect 146 0 155 0;
#X connect 147 0 156 0;
#X connect 148 0 157 0;
#X connect 149 0 158 0;
#X connect 150 0 159 0;
#X connect 151 0 160 0;
#X connect 152 0 161 0;
#X connect 153 0 125 0;
#X connect 154 0 123 0;
#X connect 155 0 108 0;
#X connect 156 0 108 0;
#X connect 157 0 108 0;
#X connect 158 0 108 0;
#X connect 159 0 108 0;
#X connect 160 0 108 0;
#X connect 161 0 108 0;
#X connect 162 0 108 0;
#X connect 163 0 162 0;
#X connect 179 0 245 0;
#X connect 179 0 248 0;
#X connect 179 0 250 0;
#X connect 180 0 245 0;
#X connect 180 0 248 0;
#X connect 180 0 250 0;
#X connect 181 0 245 0;
#X connect 181 0 248 0;
#X connect 181 0 250 0;
#X connect 182 0 245 0;
#X connect 182 0 248 0;
#X connect 182 0 250 0;
#X connect 183 0 245 0;
#X connect 183 0 248 0;
#X connect 183 0 250 0;
#X connect 184 0 245 0;
#X connect 184 0 248 0;
#X connect 184 0 250 0;
#X connect 185 0 245 0;
#X connect 185 0 248 0;
#X connect 185 0 250 0;
#X connect 186 0 245 0;
#X connect 186 0 248 0;
#X connect 186 0 250 0;
#X connect 187 0 245 0;
#X connect 187 0 248 0;
#X connect 187 0 250 0;
#X connect 188 0 245 0;
#X connect 188 0 248 0;
#X connect 188 0 250 0;
#X connect 189 0 245 0;
#X connect 189 0 248 0;
#X connect 189 0 250 0;
#X connect 190 0 245 0;
#X connect 190 0 248 0;
#X connect 190 0 250 0;
#X connect 191 0 245 0;
#X connect 191 0 248 0;
#X connect 191 0 250 0;
#X connect 192 0 245 0;
#X connect 192 0 248 0;
#X connect 192 0 250 0;
#X connect 193 0 245 0;
#X connect 193 0 248 0;
#X connect 193 0 250 0;
#X connect 194 0 245 0;
#X connect 194 0 248 0;
#X connect 194 0 250 0;
#X connect 195 0 179 1;
#X connect 195 0 211 0;
#X connect 196 0 180 1;
#X connect 196 0 212 0;
#X connect 197 0 181 1;
#X connect 197 0 213 0;
#X connect 198 0 182 1;
#X connect 198 0 214 0;
#X connect 199 0 183 1;
#X connect 199 0 215 0;
#X connect 200 0 184 1;
#X connect 200 0 216 0;
#X connect 201 0 185 1;
#X connect 201 0 217 0;
#X connect 202 0 186 1;
#X connect 202 0 218 0;
#X connect 203 0 187 1;
#X connect 203 0 219 0;
#X connect 204 0 188 1;
#X connect 204 0 220 0;
#X connect 205 0 189 1;
#X connect 205 0 221 0;
#X connect 206 0 190 1;
#X connect 206 0 222 0;
#X connect 207 0 191 1;
#X connect 207 0 223 0;
#X connect 208 0 192 1;
#X connect 208 0 224 0;
#X connect 209 0 193 1;
#X connect 209 0 225 0;
#X connect 210 0 194 1;
#X connect 210 0 226 0;
#X connect 227 0 231 0;
#X connect 227 0 230 0;
#X connect 228 0 106 0;
#X connect 228 1 90 0;
#X connect 228 2 91 0;
#X connect 228 3 92 0;
#X connect 228 4 93 0;
#X connect 228 5 94 0;
#X connect 228 6 95 0;
#X connect 228 7 96 0;
#X connect 228 8 97 0;
#X connect 228 9 98 0;
#X connect 228 10 99 0;
#X connect 228 11 100 0;
#X connect 228 12 101 0;
#X connect 228 13 102 0;
#X connect 228 14 103 0;
#X connect 228 15 104 0;
#X connect 228 16 312 0;
#X connect 229 0 92 0;
#X connect 229 0 104 0;
#X connect 229 0 103 0;
#X connect 229 0 102 0;
#X connect 229 0 101 0;
#X connect 229 0 97 0;
#X connect 229 0 98 0;
#X connect 229 0 99 0;
#X connect 229 0 100 0;
#X connect 229 0 96 0;
#X connect 229 0 95 0;
#X connect 229 0 94 0;
#X connect 229 0 93 0;
#X connect 229 0 106 0;
#X connect 229 0 90 0;
#X connect 229 0 91 0;
#X connect 230 0 231 0;
#X connect 230 1 229 0;
#X connect 231 0 228 0;
#X connect 232 0 122 0;
#X connect 232 0 143 0;
#X connect 233 0 123 0;
#X connect 233 0 154 0;
#X connect 234 0 124 0;
#X connect 234 0 144 0;
#X connect 235 0 125 0;
#X connect 235 0 153 0;
#X connect 236 0 111 0;
#X connect 236 0 145 0;
#X connect 237 0 155 0;
#X connect 237 0 146 0;
#X connect 238 0 156 0;
#X connect 238 0 147 0;
#X connect 239 0 157 0;
#X connect 239 0 148 0;
#X connect 240 0 158 0;
#X connect 240 0 149 0;
#X connect 241 0 159 0;
#X connect 241 0 150 0;
#X connect 242 0 160 0;
#X connect 242 0 151 0;
#X connect 243 0 161 0;
#X connect 243 0 152 0;
#X connect 244 0 162 0;
#X connect 244 0 163 0;
#X connect 246 0 247 0;
#X connect 249 0 251 0;
#X connect 249 1 262 0;
#X connect 249 2 252 0;
#X connect 249 3 261 0;
#X connect 249 4 253 0;
#X connect 249 5 254 0;
#X connect 249 6 255 0;
#X connect 249 7 256 0;
#X connect 249 8 257 0;
#X connect 249 9 258 0;
#X connect 249 10 259 0;
#X connect 249 11 260 0;
#X connect 249 12 263 0;
#X connect 249 13 274 0;
#X connect 249 14 264 0;
#X connect 249 15 273 0;
#X connect 249 16 265 0;
#X connect 249 17 266 0;
#X connect 249 18 267 0;
#X connect 249 19 268 0;
#X connect 249 20 269 0;
#X connect 249 21 270 0;
#X connect 249 22 271 0;
#X connect 249 23 272 0;
#X connect 249 24 275 0;
#X connect 250 0 249 0;
#X connect 276 0 278 1;
#X connect 277 0 18 1;
#X connect 277 0 282 0;
#X connect 277 0 291 0;
#X connect 278 0 277 0;
#X connect 279 0 278 0;
#X connect 280 0 278 0;
#X connect 285 0 286 0;
#X connect 285 1 337 0;
#X connect 287 0 285 1;
#X connect 288 0 285 2;
#X connect 290 0 293 0;
#X connect 291 0 292 0;
#X connect 292 0 296 1;
#X connect 292 0 298 1;
#X connect 292 0 310 1;
#X connect 292 0 308 1;
#X connect 292 0 306 1;
#X connect 292 0 304 1;
#X connect 292 0 302 1;
#X connect 292 0 300 1;
#X connect 293 0 291 1;
#X connect 293 0 294 0;
#X connect 293 0 295 0;
#X connect 294 0 291 0;
#X connect 296 0 297 0;
#X connect 297 0 65 0;
#X connect 298 0 299 0;
#X connect 299 0 69 0;
#X connect 300 0 301 0;
#X connect 301 0 54 0;
#X connect 302 0 303 0;
#X connect 303 0 58 0;
#X connect 304 0 305 0;
#X connect 305 0 42 0;
#X connect 306 0 307 0;
#X connect 307 0 46 0;
#X connect 308 0 309 0;
#X connect 309 0 30 0;
#X connect 310 0 311 0;
#X connect 311 0 34 0;
#X connect 312 0 313 0;
#X connect 313 0 90 0;
#X connect 313 0 101 0;
#X connect 313 0 102 0;
#X connect 313 0 103 0;
#X connect 313 0 104 0;
#X connect 313 0 100 0;
#X connect 313 0 99 0;
#X connect 313 0 98 0;
#X connect 313 0 97 0;
#X connect 313 0 93 0;
#X connect 313 0 94 0;
#X connect 313 0 95 0;
#X connect 313 0 96 0;
#X connect 313 0 92 0;
#X connect 313 0 91 0;
#X connect 313 0 106 0;
#X connect 314 0 315 0;
#X connect 314 0 316 0;
#X connect 314 0 321 0;
#X connect 314 0 324 0;
#X connect 314 0 323 0;
#X connect 314 0 322 0;
#X connect 314 0 320 0;
#X connect 314 0 319 0;
#X connect 314 0 318 0;
#X connect 314 0 317 0;
#X connect 315 0 61 0;
#X connect 315 0 27 0;
#X connect 315 0 39 0;
#X connect 315 0 51 0;
#X connect 315 0 63 0;
#X connect 315 0 25 0;
#X connect 315 0 37 0;
#X connect 315 0 49 0;
#X connect 316 0 334 0;
#X connect 317 0 326 0;
#X connect 318 0 327 0;
#X connect 319 0 328 0;
#X connect 320 0 329 0;
#X connect 321 0 330 0;
#X connect 322 0 331 0;
#X connect 323 0 332 0;
#X connect 324 0 333 0;
#X connect 326 0 179 1;
#X connect 327 0 181 1;
#X connect 328 0 183 1;
#X connect 329 0 185 1;
#X connect 330 0 187 1;
#X connect 331 0 189 1;
#X connect 332 0 191 1;
#X connect 333 0 193 1;
#X connect 334 0 227 0;
#X connect 338 0 343 0;
#X connect 339 0 344 0;
#X connect 340 0 339 0;
#X connect 340 0 341 0;
#X connect 340 0 342 0;
#X connect 340 0 338 0;
#X connect 341 0 25 0;
#X connect 341 0 27 0;
#X connect 341 0 26 0;
#X connect 341 0 37 0;
#X connect 341 0 38 0;
#X connect 341 0 39 0;
#X connect 341 0 51 0;
#X connect 341 0 50 0;
#X connect 341 0 49 0;
#X connect 341 0 63 0;
#X connect 341 0 62 0;
#X connect 341 0 61 0;
#X connect 341 0 19 0;
#X connect 342 0 28 0;
#X connect 342 0 40 0;
#X connect 342 0 52 0;
#X connect 342 0 64 0;
#X connect 343 0 179 1;
#X connect 343 0 181 1;
#X connect 343 0 183 1;
#X connect 343 0 185 1;
#X connect 343 0 187 1;
#X connect 343 0 189 1;
#X connect 343 0 191 1;
#X connect 343 0 193 1;
#X connect 344 0 180 1;
#X connect 344 0 184 1;
#X connect 344 0 188 1;
#X connect 344 0 192 1;
#X connect 345 0 341 0;
#X connect 345 0 346 0;
#X connect 346 0 64 0;
#X connect 346 0 28 0;
#X connect 346 0 40 0;
#X connect 346 0 52 0;
#X connect 347 0 342 0;
#X connect 347 0 348 0;
#X connect 347 0 357 0;
#X connect 348 0 61 0;
#X connect 348 0 25 0;
#X connect 348 0 26 0;
#X connect 348 0 27 0;
#X connect 348 0 39 0;
#X connect 348 0 38 0;
#X connect 348 0 37 0;
#X connect 348 0 49 0;
#X connect 348 0 50 0;
#X connect 348 0 51 0;
#X connect 348 0 63 0;
#X connect 348 0 62 0;
#X connect 348 0 19 0;
#X connect 349 0 340 0;
#X connect 350 0 345 0;
#X connect 351 0 347 0;
#X connect 352 0 356 0;
#X connect 353 0 359 0;
#X connect 354 0 353 1;
#X connect 355 0 353 0;
#X connect 356 0 355 0;
#X connect 357 0 355 0;
#X connect 358 0 360 0;
#X connect 359 0 358 0;
#X connect 359 0 361 0;
#X connect 360 0 334 0;
#X connect 361 0 362 0;
#X connect 362 0 137 0;
#X connect 362 1 136 0;
#X connect 362 2 130 0;
#X connect 362 3 132 0;
#X connect 362 4 134 0;
#X connect 362 5 154 0;
#X connect 362 6 153 0;
#X connect 362 7 147 0;
#X connect 362 8 149 0;
#X connect 362 9 151 0;
#X coords 0 -1 1 1 866 471 2 113 -442;
#X scroll 1;
#X restore -1150 -370 pd sequencer;
#X obj -620 400 hsl 375 60 10 690 0 0 sequencerSpeed empty Sequencer\ Speed
121 28 0 15 #2da8c2 #000000 #f8d843 54 1;
#N canvas 0 22 1792 1095 (subpatch) 0;
#X array Envelope 32383 float 0 black #5381e6;
#X coords 0 1 32382 0 470 229 1;
#X restore -1150 104 graph;
#X obj -1150 336 hsl 465 8 0 33000 0 0 empty ADSR_size_slider empty
-2 -8 0 10 #fcfcfc #000000 #000000 45534 1;
#X msg -1230 480 resize \$1;
#X floatatom -1070 750 18 0 0 0 - - -, f 18;
#X obj -700 399 vsl 60 305 0 1 0 0 empty empty ^Master\ Volume -1 319
0 15 #5381e6 #000000 #000000 15200 1;
#X obj -620 500 hsl 375 60 0 1 0 0 empty empty Don't\ mean\ a\ thing\ if\ it\ ain't\ got\ SWING
10 29 0 15 #2da8c2 #000000 #f8d843 0 1;
#X obj -620 650 hsl 375 60 0 1 0 0 empty empty Small<--------REVERB-------->BIG!
38 28 0 15 #849098 #000000 #f8d843 26180 1;
#X obj -1100 650 hsl 375 60 0 1 0 0 empty empty Bone\ Dry\ <-----REVERB----->\ 100%\ Soaked
21 28 0 15 #849098 #000000 #f8d843 11220 1;
#X obj -1100 400 hsl 375 60 0 0.5 0 0 empty empty Envelope\ Shape 113
28 0 15 #5381e6 #000000 #f8d843 37400 1;
#X obj -1100 500 hsl 375 60 0 1 0 0 empty empty Envelope\ Sustain 113
28 0 15 #5381e6 #000000 #f8d843 33660 1;
#X obj -1100 470 s ADSRfader;
#X obj -1100 580 s ADSRsustain;
#N canvas 0 22 1792 1095 reverb_stage 0;
#X obj 310 700 freeverb~;
#X obj 130 250 inlet;
#X obj 470 230 inlet;
#X obj 260 780 outlet~;
#X obj 400 780 outlet~;
#X obj 710 550 inlet~;
#X msg 550 500 roomsize \$1;
#X msg 190 470 wet \$1;
#X msg 70 570 dry \$1;
#X obj 82 547 hsl 60 18 0 1 0 1 empty empty dry 2 9 1 12 #d8fcd8 #000000
#000000 5900 0;
#X obj 202 447 hsl 60 18 0 1 0 1 empty empty wet 2 9 1 12 #d8fcd8 #000000
#000000 1770 0;
#X obj 562 477 hsl 60 18 0.11 1.1 0 1 empty empty roomsize 2 9 1 12
#fce0e0 #000000 #000000 3516 0;
#X floatatom 532 481 3 0 0 0 - - -, f 3;
#X floatatom 172 451 3 0 0 0 - - -, f 3;
#X floatatom 52 551 3 0 0 0 - - -, f 3;
#X obj 350 110 vsl 15 128 0 1 0 0 empty empty empty 0 -9 0 10 #fcfcfc
#000000 #000000 0 1;
#X obj 760 70 vsl 15 128 0.2 1 0 0 empty empty empty 0 -9 0 10 #fcfcfc
#000000 #000000 0 1;
#X msg 420 500 damping 0.5;
#X connect 0 0 3 0;
#X connect 0 1 4 0;
#X connect 1 0 10 0;
#X connect 2 0 11 0;
#X connect 5 0 0 1;
#X connect 5 0 0 0;
#X connect 6 0 0 0;
#X connect 7 0 0 0;
#X connect 8 0 0 0;
#X connect 9 0 8 0;
#X connect 9 0 14 0;
#X connect 10 0 7 0;
#X connect 10 0 13 0;
#X connect 11 0 6 0;
#X connect 11 0 12 0;
#X connect 15 0 10 0;
#X connect 16 0 11 0;
#X connect 17 0 0 0;
#X restore 600 560 pd reverb_stage;
#X obj -527 550 bng 70 250 50 0 empty empty Triplets 4 33 0 13 #2ca4bd
#000000 #f8d843;
#X msg -600 570 0.333333;
#X obj -1230 550 s Envelope;
#X obj 1265 10 pow -1;
#X obj 1250 -40 r sequencerSpeedInverse;
#X floatatom 1090 530 5 0 0 0 - - -, f 5;
#X floatatom 1030 530 5 0 0 0 - - -, f 5;
#X msg 1030 470 1;
#X obj 1030 500 -;
#X obj 1100 480 bng 15 250 50 0 empty empty empty 17 7 0 10 #fcfcfc
#000000 #000000;
#X obj -450 -600 loadbang;
#X obj -980 -430 s WavMixer;
#X obj -930 -470 s Resolutions;
#X obj -880 -430 s Saw1Harmonics;
#X obj -830 -470 s Saw2Harmonics;
#X obj -750 -430 s T1Harmonics;
#X obj -700 -470 s T2Harmonics;
#X obj -630 -430 s Sqr1Harmonics;
#X obj -580 -470 s Sqr2Harmonics;
#X obj -490 -430 s Master;
#X obj -440 -470 s Reverb;
#X obj -390 -430 s ReverbSize;
#X obj -340 -470 s ADSRShape;
#X obj -110 -470 s SeqSpeed;
#X msg -845 -533 0.5;
#X msg -776 -533 8;
#X obj -450 -580 t b b;
#X msg -710 -533 50;
#X msg -650 -533 0.7;
#X msg -534 -533 0;
#X msg -440 -530 0.25;
#X msg -350 -530 300;
#X obj -190 90 r WavMixer;
#X obj -70 -410 r Resolutions;
#X obj -140 -340 r Saw1Harmonics;
#X obj -110 240 r Saw2Harmonics;
#X obj 160 250 r T2Harmonics;
#X obj 154 -333 r T1Harmonics;
#X obj 410 -330 r Sqr1Harmonics;
#X obj 410 250 r Sqr2Harmonics;
#X obj -680 370 r Master;
#X obj -990 610 r Reverb;
#X obj -620 610 r ReverbSize;
#X obj -1000 380 r ADSRShape;
#X obj -600 360 r SeqSpeed;
#X obj -950 470 r ADSRSustain_ctr;
#X obj -290 -430 s ADSRSustain_ctr;
#N canvas 0 0 1792 1095 visuals 0;
#X obj 210 500 gemhead;
#X msg 690 810 draw point;
#X obj 705 518 *~;
#X obj 732 519 *~;
#X obj 590 410 gemwin;
#X obj 500 430 loadbang;
#X msg 600 570 draw line;
#X obj 870 430 hsl 128 15 0 4 0 0 empty empty empty -2 -8 0 10 #fcfcfc
#000000 #000000 4445 1;
#X obj 360 550 colorRGB;
#X msg 180 350 destroy;
#X obj 620 650 scopeXYZ~ 2205;
#X obj 650 260 inlet~;
#X obj 720 260 inlet~;
#X obj 250 290 inlet;
#X obj 180 290 inlet;
#X obj 350 390 inlet;
#X obj 400 390 inlet;
#X obj 450 390 inlet;
#X obj 890 270 inlet;
#X obj 160 590 gemhead;
#X obj 260 630 colorRGB;
#X obj 540 760 scopeXYZ~ 2205;
#X obj 1032 329 inlet~;
#X obj 1100 320 inlet~;
#X obj 1040 530 *~;
#X obj 1067 531 *~;
#X msg 660 440 3;
#X obj 450 610 rotate 45 0 0 1;
#X obj 370 690 rotate 45 0 0 1;
#X obj 172 702 gemhead;
#X obj 322 752 colorRGB;
#X obj 620 980 scopeXYZ~ 2205;
#X obj 1300 890 inlet~;
#X obj 410 810 rotate 180 0 0 1;
#X obj 530 930 translateXYZ;
#X msg 620 860 2;
#X obj 800 840 *~;
#X obj 1140 660 vsl 15 128 0 4 0 0 empty empty empty 0 -9 0 10 #fcfcfc
#000000 #000000 0 1;
#X obj 892 355 * 0.7;
#X msg 880 760 5, f 4;
#X obj 925 645 osc~ 20;
#X msg 540 340 reset \, dimen 1000 1000 \, offset 200 200 \, create
\, 1;
#X connect 0 0 8 0;
#X connect 1 0 31 0;
#X connect 2 0 10 1;
#X connect 2 0 21 3;
#X connect 3 0 10 2;
#X connect 5 0 26 0;
#X connect 5 0 41 0;
#X connect 5 0 6 0;
#X connect 5 0 35 0;
#X connect 5 0 39 0;
#X connect 5 0 1 0;
#X connect 6 0 10 0;
#X connect 6 0 21 0;
#X connect 7 0 2 1;
#X connect 7 0 3 1;
#X connect 7 0 25 1;
#X connect 7 0 24 1;
#X connect 8 0 27 0;
#X connect 9 0 4 0;
#X connect 11 0 2 0;
#X connect 12 0 3 0;
#X connect 13 0 41 0;
#X connect 14 0 9 0;
#X connect 15 0 8 1;
#X connect 15 0 20 1;
#X connect 15 0 30 3;
#X connect 16 0 8 2;
#X connect 16 0 20 2;
#X connect 16 0 30 2;
#X connect 17 0 8 3;
#X connect 17 0 20 3;
#X connect 17 0 30 1;
#X connect 18 0 38 0;
#X connect 19 0 20 0;
#X connect 20 0 28 0;
#X connect 22 0 24 0;
#X connect 23 0 25 0;
#X connect 24 0 21 1;
#X connect 25 0 21 2;
#X connect 25 0 10 3;
#X connect 26 0 7 0;
#X connect 27 0 10 0;
#X connect 28 0 21 0;
#X connect 29 0 30 0;
#X connect 30 0 33 0;
#X connect 32 0 31 2;
#X connect 33 0 34 0;
#X connect 34 0 31 0;
#X connect 35 0 34 2;
#X connect 36 0 31 1;
#X connect 37 0 36 1;
#X connect 38 0 7 0;
#X connect 39 0 36 1;
#X connect 40 0 10 3;
#X connect 40 0 21 3;
#X connect 40 0 36 0;
#X connect 41 0 4 0;
#X restore 890 360 pd visuals;
#X obj 870 120 bng 19 250 50 0 empty empty empty 17 7 0 10 #fcfcfc
#000000 #000000;
#X obj 900 120 bng 19 250 50 0 empty empty empty 17 7 0 10 #fcfcfc
#000000 #000000;
#X obj 1100 90 vsl 15 128 0 4 0 0 empty empty empty 0 -9 0 10 #fcfcfc
#000000 #000000 6350 1;
#X obj 1005 138 * 4;
#X obj -270 -240 bng 50 250 50 0 empty empty DEMO 9 -9 0 12 #1b4bda
#000000 #000000;
#X obj -130 -440 s swing;
#X obj -555 474 r swing;
#X msg -173 -533 0.5;
#X obj -100 -490 line;
#X obj -110 -570 t b b;
#X msg -40 -530 100;
#X msg -120 -530 610 45000;
#X obj -270 -160 bng 50 250 50 0 empty empty COMPOSITION -8 -8 0 10
#1b4bda #000000 #000000;
#X floatatom -1390 -640 5 0 0 0 - - -, f 5;
#X obj -1390 -720 bng 15 250 50 0 empty empty empty 17 7 0 10 #fcfcfc
#000000 #000000;
#X obj -1390 -670 * 0.1;
#X floatatom -1300 -640 5 0 0 0 - - -, f 5;
#X obj -1300 -720 bng 15 250 50 0 empty empty empty 17 7 0 10 #fcfcfc
#000000 #000000;
#X floatatom -1210 -640 5 0 0 0 - - -, f 5;
#X obj -1210 -720 bng 15 250 50 0 empty empty empty 17 7 0 10 #fcfcfc
#000000 #000000;
#X floatatom -1120 -640 5 0 0 0 - - -, f 5;
#X obj -1120 -720 bng 15 250 50 0 empty empty empty 17 7 0 10 #fcfcfc
#000000 #000000;
#X floatatom -1030 -640 5 0 0 0 - - -, f 5;
#X obj -1030 -720 bng 15 250 50 0 empty empty empty 17 7 0 10 #fcfcfc
#000000 #000000;
#X floatatom -940 -640 5 0 0 0 - - -, f 5;
#X obj -940 -720 bng 15 250 50 0 empty empty empty 17 7 0 10 #fcfcfc
#000000 #000000;
#X floatatom -850 -640 5 0 0 0 - - -, f 5;
#X obj -850 -720 bng 15 250 50 0 empty empty empty 17 7 0 10 #fcfcfc
#000000 #000000;
#X floatatom -760 -640 5 0 0 0 - - -, f 5;
#X obj -760 -720 bng 15 250 50 0 empty empty empty 17 7 0 10 #fcfcfc
#000000 #000000;
#X floatatom -670 -640 5 0 0 0 - - -, f 5;
#X obj -670 -720 bng 15 250 50 0 empty empty empty 17 7 0 10 #fcfcfc
#000000 #000000;
#X obj -670 -670 * 0.1;
#X obj -580 -700 random 10;
#X floatatom -580 -640 5 0 0 0 - - -, f 5;
#X obj -580 -720 bng 15 250 50 0 empty empty empty 17 7 0 10 #fcfcfc
#000000 #000000;
#X obj -580 -670 * 0.1;
#X floatatom -490 -640 5 0 0 0 - - -, f 5;
#X obj -490 -720 bng 15 250 50 0 empty empty empty 17 7 0 10 #fcfcfc
#000000 #000000;
#X obj -490 -670 * 0.1;
#X floatatom -400 -640 5 0 0 0 - - -, f 5;
#X obj -400 -720 bng 15 250 50 0 empty empty empty 17 7 0 10 #fcfcfc
#000000 #000000;
#X obj -400 -670 * 0.1;
#X obj -240 -590 line;
#X obj -190 -760 t b b;
#X msg -220 -620 100;
#X msg -230 -650 100 20000;
#X msg -50 -650 200 10000;
#X obj 380 -600 bng 15 250 50 0 empty empty empty 17 7 0 10 #fcfcfc
#000000 #000000;
#X obj -270 -190 s PAdemo;
#X obj -280 -100 s AVdemo;
#X obj -270 -710 bng 15 250 50 0 empty empty empty 17 7 0 10 #fcfcfc
#000000 #000000;
#X obj -230 -700 bng 15 250 50 0 empty empty empty 17 7 0 10 #fcfcfc
#000000 #000000;
#X obj -140 -700 bng 15 250 50 0 empty empty empty 17 7 0 10 #fcfcfc
#000000 #000000;
#X obj -50 -700 bng 15 250 50 0 empty empty empty 17 7 0 10 #fcfcfc
#000000 #000000;
#X obj 40 -710 bng 15 250 50 0 empty empty empty 17 7 0 10 #fcfcfc
#000000 #000000;
#X obj 380 -650 bng 15 250 50 0 empty empty empty 17 7 0 10 #fcfcfc
#000000 #000000;
#X obj -230 -680 del 20000;
#X obj -140 -680 del 20000;
#X obj -50 -680 del 10000;
#X obj 40 -690 del 10000;
#X obj 380 -580 s AVdemo_stop;
#X obj -760 -820 metro 1000;
#X floatatom 1200 11 5 0 0 0 - - -, f 5;
#X obj -670 -840 r sequencerSpeedInverse;
#X obj -410 -780 tgl 15 0 empty empty empty 17 7 0 10 #fcfcfc #000000
#000000 0 1;
#X msg -330 -810 1;
#X msg -280 -810 0;
#X obj -1300 -700 random 9;
#X obj -1210 -700 random 100;
#X obj -1210 -670 + 1;
#X obj -1120 -670 + 1;
#X obj -1120 -700 random 100;
#X obj -1030 -700 random 100;
#X obj -940 -700 random 100;
#X obj -850 -700 random 100;
#X obj -760 -700 random 100;
#X obj -1030 -670 + 1;
#X obj -940 -670 + 1;
#X obj -850 -670 + 1;
#X obj -760 -670 + 1;
#X obj -490 -700 random 6;
#X obj -400 -700 random 11;
#X obj -1390 -700 random 11;
#X obj -670 -700 random 11;
#X obj -810 -790 t b b;
#X obj 90 -817 random 6;
#X obj -40 -870 bng 31 250 50 0 empty empty empty 17 7 0 10 #fcfcfc
#000000 #000000;
#X obj 90 -790 sel 0 1 2 3 4 5;
#X msg -140 -650 600 10000;
#X msg -320 -650 600 20000;
#X msg 40 -650 500 10000;
#X obj 380 -740 bng 15 250 50 0 empty empty empty 17 7 0 10 #fcfcfc
#000000 #000000;
#X obj 380 -710 del 10000;
#X obj 380 -630 del 10000;
#X msg -280 -550 0.5;
#X msg 380 -680 10 10000;
#X obj -270 -60 bng 50 250 50 0 empty empty STOP 9 -9 0 15 #da1b1b
#000000 #000000;
#X obj -280 10 s AVdemo_stop;
#X obj -243 -538 spigot;
#X obj -190 -570 tgl 15 0 empty empty empty 17 7 0 10 #fcfcfc #000000
#000000 0 1;
#X msg -170 -600 1;
#X text -640 -186 Bits with an X in their box will trigger in time
with the sequencer speed------>, f 12;
#X text -1320 -800 These random number objects generate random synth
parameters for the audio visual demonstration.;
#X text -140 -760 This sequence of line messages varies the sequencer
speed throughout the audio visual demonstration to add extra dynamics
to the composition.;
#X text -10 -610 This smaller set of line messages slowly increase
the sequencer speed from low to high so that the "steaming" psychoacoustic
phenomenon is heard.;
#X obj -270 50 bng 50 250 50 0 empty empty RANDOM 7 -8 0 10 #1b4bda
#000000 #000000;
#X connect 1 0 2 0;
#X connect 1 0 24 0;
#X connect 2 0 26 0;
#X connect 3 0 120 2;
#X connect 3 0 168 5;
#X connect 4 0 7 0;
#X connect 4 1 8 0;
#X connect 5 0 4 0;
#X connect 6 0 7 1;
#X connect 6 0 5 0;
#X connect 7 0 10 0;
#X connect 8 0 10 1;
#X connect 9 0 8 1;
#X connect 12 0 14 0;
#X connect 12 1 15 0;
#X connect 13 0 14 1;
#X connect 13 0 96 0;
#X connect 14 0 11 0;
#X connect 15 0 11 1;
#X connect 16 0 15 1;
#X connect 18 0 20 0;
#X connect 18 1 21 0;
#X connect 19 0 20 1;
#X connect 19 0 95 0;
#X connect 20 0 17 0;
#X connect 21 0 17 1;
#X connect 22 0 21 1;
#X connect 24 0 27 0;
#X connect 25 0 28 0;
#X connect 25 0 30 0;
#X connect 25 0 106 1;
#X connect 25 0 106 2;
#X connect 25 0 168 4;
#X connect 26 0 3 0;
#X connect 27 0 3 0;
#X connect 28 0 31 1;
#X connect 28 0 33 0;
#X connect 28 0 34 0;
#X connect 29 0 32 0;
#X connect 29 0 34 0;
#X connect 30 0 31 0;
#X connect 31 0 29 0;
#X connect 32 0 26 1;
#X connect 33 0 27 1;
#X connect 34 0 32 1;
#X connect 34 0 33 1;
#X connect 35 0 37 0;
#X connect 35 1 38 0;
#X connect 36 0 37 1;
#X connect 36 0 99 0;
#X connect 37 0 40 0;
#X connect 38 0 40 1;
#X connect 39 0 38 1;
#X connect 41 0 42 0;
#X connect 42 0 43 0;
#X connect 43 0 44 0;
#X connect 44 0 45 0;
#X connect 45 0 52 1;
#X connect 45 0 54 0;
#X connect 46 0 44 0;
#X connect 47 0 46 0;
#X connect 48 0 41 0;
#X connect 48 0 51 0;
#X connect 49 0 48 0;
#X connect 50 0 49 0;
#X connect 52 0 53 0;
#X connect 53 0 126 0;
#X connect 53 0 130 0;
#X connect 54 0 52 0;
#X connect 60 0 59 0;
#X connect 61 0 60 0;
#X connect 62 0 61 0;
#X connect 63 0 3 1;
#X connect 63 0 168 6;
#X connect 64 0 58 0;
#X connect 64 0 58 1;
#X connect 64 0 59 0;
#X connect 64 0 168 10;
#X connect 65 0 67 0;
#X connect 65 1 68 0;
#X connect 66 0 67 1;
#X connect 66 0 97 0;
#X connect 67 0 75 0;
#X connect 68 0 75 1;
#X connect 69 0 68 1;
#X connect 70 0 72 0;
#X connect 70 1 73 0;
#X connect 71 0 72 1;
#X connect 71 0 98 0;
#X connect 72 0 76 0;
#X connect 73 0 76 1;
#X connect 74 0 73 1;
#X connect 77 0 100 0;
#X connect 78 0 101 0;
#X connect 79 0 102 0;
#X connect 80 0 103 0;
#X connect 81 0 104 0;
#X connect 82 0 105 0;
#X connect 83 0 84 0;
#X connect 84 0 9 0;
#X connect 85 0 86 0;
#X connect 86 0 22 0;
#X connect 87 0 88 0;
#X connect 88 0 16 0;
#X connect 89 0 90 0;
#X connect 90 0 69 0;
#X connect 91 0 92 0;
#X connect 92 0 74 0;
#X connect 93 0 94 0;
#X connect 94 0 39 0;
#X connect 95 0 18 0;
#X connect 96 0 12 0;
#X connect 97 0 65 0;
#X connect 98 0 70 0;
#X connect 99 0 35 0;
#X connect 100 0 6 0;
#X connect 101 0 19 0;
#X connect 102 0 13 0;
#X connect 103 0 66 0;
#X connect 104 0 71 0;
#X connect 105 0 36 0;
#X connect 106 0 1 0;
#X connect 106 1 120 2;
#X connect 106 1 168 9;
#X connect 106 2 168 8;
#X connect 107 0 56 0;
#X connect 109 0 111 0;
#X connect 109 0 110 0;
#X connect 110 0 123 0;
#X connect 112 0 55 0;
#X connect 112 0 64 1;
#X connect 112 0 172 0;
#X connect 113 0 106 0;
#X connect 114 0 120 1;
#X connect 114 0 168 3;
#X connect 115 0 120 0;
#X connect 115 0 168 2;
#X connect 116 0 118 0;
#X connect 117 0 119 0;
#X connect 120 0 64 0;
#X connect 121 0 122 0;
#X connect 122 0 113 0;
#X connect 124 0 50 0;
#X connect 125 0 124 0;
#X connect 125 0 232 0;
#X connect 126 0 129 1;
#X connect 127 0 25 0;
#X connect 128 0 129 0;
#X connect 129 0 127 0;
#X connect 130 0 128 0;
#X connect 131 0 147 0;
#X connect 145 0 132 0;
#X connect 145 0 142 0;
#X connect 145 0 167 0;
#X connect 146 0 133 0;
#X connect 147 0 5 0;
#X connect 147 0 98 0;
#X connect 147 1 148 0;
#X connect 147 1 150 0;
#X connect 147 1 152 0;
#X connect 147 1 151 0;
#X connect 147 1 149 0;
#X connect 147 1 146 0;
#X connect 147 1 145 0;
#X connect 148 0 135 0;
#X connect 148 0 139 0;
#X connect 148 0 138 0;
#X connect 148 0 137 0;
#X connect 148 0 136 0;
#X connect 148 0 134 0;
#X connect 149 0 140 0;
#X connect 150 0 141 0;
#X connect 150 0 174 0;
#X connect 151 0 143 0;
#X connect 152 0 144 0;
#X connect 153 0 25 0;
#X connect 154 0 83 0;
#X connect 154 0 85 0;
#X connect 154 0 93 0;
#X connect 154 0 91 0;
#X connect 154 0 89 0;
#X connect 154 0 87 0;
#X connect 155 0 77 0;
#X connect 156 0 80 0;
#X connect 157 0 81 0;
#X connect 158 0 78 0;
#X connect 159 0 79 0;
#X connect 160 0 82 0;
#X connect 161 0 112 0;
#X connect 162 0 115 0;
#X connect 163 0 114 0;
#X connect 164 0 116 0;
#X connect 165 0 107 0;
#X connect 166 0 117 0;
#X connect 169 0 168 0;
#X connect 170 0 168 1;
#X connect 171 0 168 7;
#X connect 172 0 171 0;
#X connect 173 0 152 0;
#X connect 173 0 150 0;
#X connect 173 0 149 0;
#X connect 173 0 148 0;
#X connect 173 0 146 0;
#X connect 173 0 145 0;
#X connect 173 0 176 0;
#X connect 173 0 178 0;
#X connect 173 0 218 0;
#X connect 173 0 270 0;
#X connect 175 0 113 0;
#X connect 176 0 143 0;
#X connect 177 0 144 0;
#X connect 178 0 180 0;
#X connect 178 1 179 0;
#X connect 179 0 177 0;
#X connect 180 0 177 0;
#X connect 181 0 213 0;
#X connect 181 0 219 0;
#X connect 181 0 235 0;
#X connect 181 0 264 0;
#X connect 182 0 132 0;
#X connect 183 0 252 0;
#X connect 184 0 182 0;
#X connect 185 0 133 0;
#X connect 186 0 237 0;
#X connect 187 0 134 0;
#X connect 188 0 238 0;
#X connect 189 0 135 0;
#X connect 190 0 241 0;
#X connect 191 0 136 0;
#X connect 192 0 242 0;
#X connect 193 0 137 0;
#X connect 194 0 243 0;
#X connect 195 0 138 0;
#X connect 196 0 244 0;
#X connect 197 0 139 0;
#X connect 198 0 245 0;
#X connect 199 0 141 0;
#X connect 200 0 253 0;
#X connect 201 0 199 0;
#X connect 202 0 205 0;
#X connect 203 0 142 0;
#X connect 204 0 202 0;
#X connect 205 0 203 0;
#X connect 206 0 143 0;
#X connect 207 0 250 0;
#X connect 208 0 206 0;
#X connect 209 0 167 0;
#X connect 210 0 251 0;
#X connect 211 0 209 0;
#X connect 212 0 268 0;
#X connect 213 0 220 0;
#X connect 213 1 214 0;
#X connect 214 0 212 0;
#X connect 215 0 212 0;
#X connect 215 0 222 0;
#X connect 216 0 212 0;
#X connect 216 0 224 0;
#X connect 217 0 230 0;
#X connect 217 0 236 0;
#X connect 220 0 259 0;
#X connect 221 0 226 0;
#X connect 222 0 227 0;
#X connect 223 0 228 0;
#X connect 224 0 229 0;
#X connect 225 0 263 0;
#X connect 226 0 215 0;
#X connect 227 0 258 0;
#X connect 228 0 216 0;
#X connect 229 0 260 0;
#X connect 231 0 254 0;
#X connect 233 0 231 1;
#X connect 234 0 231 0;
#X connect 234 0 268 1;
#X connect 234 0 269 0;
#X connect 235 0 234 0;
#X connect 236 0 234 0;
#X connect 237 0 185 0;
#X connect 238 0 239 0;
#X connect 239 0 187 0;
#X connect 240 0 189 0;
#X connect 241 0 240 0;
#X connect 242 0 246 0;
#X connect 243 0 247 0;
#X connect 244 0 248 0;
#X connect 245 0 249 0;
#X connect 246 0 191 0;
#X connect 247 0 193 0;
#X connect 248 0 195 0;
#X connect 249 0 197 0;
#X connect 250 0 208 0;
#X connect 251 0 211 0;
#X connect 252 0 184 0;
#X connect 253 0 201 0;
#X connect 254 0 256 0;
#X connect 254 1 198 0;
#X connect 254 1 210 0;
#X connect 254 1 207 0;
#X connect 254 1 204 0;
#X connect 254 1 200 0;
#X connect 254 1 196 0;
#X connect 254 1 194 0;
#X connect 254 1 192 0;
#X connect 254 1 190 0;
#X connect 254 1 188 0;
#X connect 254 1 186 0;
#X connect 254 1 183 0;
#X connect 255 0 257 0;
#X connect 256 0 255 0;
#X connect 257 0 5 0;
#X connect 257 1 95 0;
#X connect 257 2 96 0;
#X connect 257 3 97 0;
#X connect 257 4 98 0;
#X connect 257 5 99 0;
#X connect 258 0 212 0;
#X connect 258 0 223 0;
#X connect 259 0 212 0;
#X connect 259 0 221 0;
#X connect 260 0 212 0;
#X connect 260 0 261 0;
#X connect 261 0 262 0;
#X connect 262 0 265 0;
#X connect 263 0 217 0;
#X connect 264 0 140 0;
#X connect 265 0 225 0;
#X connect 265 0 212 0;
#X connect 266 0 267 0;
#X connect 266 0 236 0;
#X connect 268 0 144 0;
#X connect 269 0 268 1;
#X connect 270 0 269 0;
#X connect 275 0 254 0;
#X coords 0 -1 1 1 1676 1112 2 -1154 -374;
#X restore 0 0 pd wavetable;
#N canvas 0 0 1792 1095 oscilloscope 0;
#N canvas 0 22 450 300 (subpatch) 0;
#X array oscilloscope 1934 float 5 black black;
#A 0 0 0 0 0 0 0 0 0 0 0 0 0 0 0 0 0 0 0 0 0 0 0 0 0 0 0 0 0 0 0 0
0 0 0 0 0 0 0 0 0 0 0 0 0 0 0 0 0 0 0 0 0 0 0 0 0 0 0 0 0 0 0 0 0 0
0 0 0 0 0 0 0 0 0 0 0 0 0 0 0 0 0 0 0 0 0 0 0 0 0 0 0 0 0 0 0 0 0 0
0 0 0 0 0 0 0 0 0 0 0 0 0 0 0 0 0 0 0 0 0 0 0 0 0 0 0 0 0 0 0 0 0 0
0 0 0 0 0 0 0 0 0 0 0 0 0 0 0 0 0 0 0 0 0 0 0 0 0 0 0 0 0 0 0 0 0 0
0 0 0 0 0 0 0 0 0 0 0 0 0 0 0 0 0 0 0 0 0 0 0 0 0 0 0 0 0 0 0 0 0 0
0 0 0 0 0 0 0 0 0 0 0 0 0 0 0 0 0 0 0 0 0 0 0 0 0 0 0 0 0 0 0 0 0 0
0 0 0 0 0 0 0 0 0 0 0 0 0 0 0 0 0 0 0 0 0 0 0 0 0 0 0 0 0 0 0 0 0 0
0 0 0 0 0 0 0 0 0 0 0 0 0 0 0 0 0 0 0 0 0 0 0 0 0 0 0 0 0 0 0 0 0 0
0 0 0 0 0 0 0 0 0 0 0 0 0 0 0 0 0 0 0 0 0 0 0 0 0 0 0 0 0 0 0 0 0 0
0 0 0 0 0 0 0 0 0 0 0 0 0 0 0 0 0 0 0 0 0 0 0 0 0 0 0 0 0 0 0 0 0 0
0 0 0 0 0 0 0 0 0 0 0 0 0 0 0 0 0 0 0 0 0 0 0 0 0 0 0 0 0 0 0 0 0 0
0 0 0 0 0 0 0 0 0 0 0 0 0 0 0 0 0 0 0 0 0 0 0 0 0 0 0 0 0 0 0 0 0 0
0 0 0 0 0 0 0 0 0 0 0 0 0 0 0 0 0 0 0 0 0 0 0 0 0 0 0 0 0 0 0 0 0 0
0 0 0 0 0 0 0 0 0 0 0 0 0 0 0 0 0 0 0 0 0 0 0 0 0 0 0 0 0 0 0 0 0 0
0 0 0 0 0 0 0 0 0 0 0 0 0 0 0 0 0 0 0 0 0 0 0 0 0 0 0 0 0 0 0 0 0 0
0 0 0 0 0 0 0 0 0 0 0 0 0 0 0 0 0 0 0 0 0 0 0 0 0 0 0 0 0 0 0 0 0 0
0 0 0 0 0 0 0 0 0 0 0 0 0 0 0 0 0 0 0 0 0 0 0 0 0 0 0 0 0 0 0 0 0 0
0 0 0 0 0 0 0 0 0 0 0 0 0 0 0 0 0 0 0 0 0 0 0 0 0 0 0 0 0 0 0 0 0 0
0 0 0 0 0 0 0 0 0 0 0 0 0 0 0 0 0 0 0 0 0 0 0 0 0 0 0 0 0 0 0 0 0 0
0 0 0 0 0 0 0 0 0 0 0 0 0 0 0 0 0 0 0 0 0 0 0 0 0 0 0 0 0 0 0 0 0 0
0 0 0 0 0 0 0 0 0 0 0 0 0 0 0 0 0 0 0 0 0 0 0 0 0 0 0 0 0 0 0 0 0 0
0 0 0 0 0 0 0 0 0 0 0 0 0 0 0 0 0 0 0 0 0 0 0 0 0 0 0 0 0 0 0 0 0 0
0 0 0 0 0 0 0 0 0 0 0 0 0 0 0 0 0 0 0 0 0 0 0 0 0 0 0 0 0 0 0 0 0 0
0 0 0 0 0 0 0 0 0 0 0 0 0 0 0 0 0 0 0 0 0 0 0 0 0 0 0 0 0 0 0 0 0 0
0 0 0 0 0 0 0 0 0 0 0 0 0 0 0 0 0 0 0 0 0 0 0 0 0 0 0 0 0 0 0 0 0 0
0 0 0 0 0 0 0 0 0 0 0 0 0 0 0 0 0 0 0 0 0 0 0 0 0 0 0 0 0 0 0 0 0 0
0 0 0 0 0 0 0 0 0 0 0 0 0 0 0 0 0 0 0 0 0 0 0 0 0 0 0 0 0 0 0 0 0 0
0 0 0 0 0 0 0 0 0 0 0 0 0 0 0 0 0 0 0 0 0 0 0 0 0 0 0 0 0 0 0 0 0 0
0 0 0 0 0 0 0 0 0 0 0 0 0 0 0 0 0;
#A 1000 0 0 0 0 0 0 0 0 0 0 0 0 0 0 0 0 0 0 0 0 0 0 0 0 0 0 0 0 0 0
0 0 0 0 0 0 0 0 0 0 0 0 0 0 0 0 0 0 0 0 0 0 0 0 0 0 0 0 0 0 0 0 0 0
0 0 0 0 0 0 0 0 0 0 0 0 0 0 0 0 0 0 0 0 0 0 0 0 0 0 0 0 0 0 0 0 0 0
0 0 0 0 0 0 0 0 0 0 0 0 0 0 0 0 0 0 0 0 0 0 0 0 0 0 0 0 0 0 0 0 0 0
0 0 0 0 0 0 0 0 0 0 0 0 0 0 0 0 0 0 0 0 0 0 0 0 0 0 0 0 0 0 0 0 0 0
0 0 0 0 0 0 0 0 0 0 0 0 0 0 0 0 0 0 0 0 0 0 0 0 0 0 0 0 0 0 0 0 0 0
0 0 0 0 0 0 0 0 0 0 0 0 0 0 0 0 0 0 0 0 0 0 0 0 0 0 0 0 0 0 0 0 0 0
0 0 0 0 0 0 0 0 0 0 0 0 0 0 0 0 0 0 0 0 0 0 0 0 0 0 0 0 0 0 0 0 0 0
0 0 0 0 0 0 0 0 0 0 0 0 0 0 0 0 0 0 0 0 0 0 0 0 0 0 0 0 0 0 0 0 0 0
0 0 0 0 0 0 0 0 0 0 0 0 0 0 0 0 0 0 0 0 0 0 0 0 0 0 0 0 0 0 0 0 0 0
0 0 0 0 0 0 0 0 0 0 0 0 0 0 0 0 0 0 0 0 0 0 0 0 0 0 0 0 0 0 0 0 0 0
0 0 0 0 0 0 0 0 0 0 0 0 0 0 0 0 0 0 0 0 0 0 0 0 0 0 0 0 0 0 0 0 0 0
0 0 0 0 0 0 0 0 0 0 0 0 0 0 0 0 0 0 0 0 0 0 0 0 0 0 0 0 0 0 0 0 0 0
0 0 0 0 0 0 0 0 0 0 0 0 0 0 0 0 0 0 0 0 0 0 0 0 0 0 0 0 0 0 0 0 0 0
0 0 0 0 0 0 0 0 0 0 0 0 0 0 0 0 0 0 0 0 0 0 0 0 0 0 0 0 0 0 0 0 0 0
0 0 0 0 0 0 0 0 0 0 0 0 0 0 0 0 0 0 0 0 0 0 0 0 0 0 0 0 0 0 0 0 0 0
0 0 0 0 0 0 0 0 0 0 0 0 0 0 0 0 0 0 0 0 0 0 0 0 0 0 0 0 0 0 0 0 0 0
0 0 0 0 0 0 0 0 0 0 0 0 0 0 0 0 0 0 0 0 0 0 0 0 0 0 0 0 0 0 0 0 0 0
0 0 0 0 0 0 0 0 0 0 0 0 0 0 0 0 0 0 0 0 0 0 0 0 0 0 0 0 0 0 0 0 0 0
0 0 0 0 0 0 0 0 0 0 0 0 0 0 0 0 0 0 0 0 0 0 0 0 0 0 0 0 0 0 0 0 0 0
0 0 0 0 0 0 0 0 0 0 0 0 0 0 0 0 0 0 0 0 0 0 0 0 0 0 0 0 0 0 0 0 0 0
0 0 0 0 0 0 0 0 0 0 0 0 0 0 0 0 0 0 0 0 0 0 0 0 0 0 0 0 0 0 0 0 0 0
0 0 0 0 0 0 0 0 0 0 0 0 0 0 0 0 0 0 0 0 0 0 0 0 0 0 0 0 0 0 0 0 0 0
0 0 0 0 0 0 0 0 0 0 0 0 0 0 0 0 0 0 0 0 0 0 0 0 0 0 0 0 0 0 0 0 0 0
0 0 0 0 0 0 0 0 0 0 0 0 0 0 0 0 0 0 0 0 0 0 0 0 0 0 0 0 0 0 0 0 0 0
0 0 0 0 0 0 0 0 0 0 0 0 0 0 0 0 0 0 0 0 0 0 0 0 0 0 0 0 0 0 0 0 0 0
0 0 0 0 0 0 0 0 0 0 0 0 0 0 0 0 0 0 0 0 0 0 0 0 0 0 0 0 0 0 0 0 0 0
0 0 0 0 0 0 0 0 0 0 0 0 0 0 0 0 0 0 0 0;
#X coords 0 1 1933 -1 451 230 1;
#X restore 490 230 graph;
#X obj 490 460 hsl 446 40 0 3000 0 0 empty empty RESIZE\ OSCILLOSCOPE
155 17 0 15 #fcfcfc #000000 #000000 0 1;
#X msg 550 721 resize \$1;
#X obj 550 750 send oscilloscope;
#X connect 1 0 2 0;
#X connect 2 0 3 0;
#X coords 0 -1 1 1 455 274 2 488 228;
#X restore 479 478 pd oscilloscope;
